<!DOCTYPE svg PUBLIC "-//W3C//DTD SVG 20010904//EN" "http://www.w3.org/TR/2001/REC-SVG-20010904/DTD/svg10.dtd">
<svg version="1.0" xmlns="http://www.w3.org/2000/svg" width="1600px" height="1131px" viewBox="0 0 16000 11310" preserveAspectRatio="xMidYMid meet">
<g id="layer101" fill="#c9beb5" stroke="none">
 <path d="M10166 8791 c-27 -30 -228 -532 -220 -550 6 -16 8 -13 49 84 7 17 20 50 30 75 17 42 30 75 60 145 7 17 32 76 56 133 23 56 46 102 50 102 4 0 9 7 13 15 8 22 -18 19 -38 -4z"/>
 <path d="M11686 8791 c-16 -18 -226 -521 -226 -541 0 -5 4 -11 9 -14 4 -3 27 43 50 102 24 59 52 127 63 152 12 25 25 54 29 65 49 125 93 225 100 225 5 0 9 7 9 15 0 20 -13 19 -34 -4z"/>
 <path d="M7519 8733 c-83 -87 -132 -154 -122 -164 6 -6 40 27 96 95 48 58 87 108 87 111 0 14 -20 0 -61 -42z"/>
 <path d="M10690 8684 c-73 -88 -94 -124 -71 -124 5 0 17 13 28 29 16 25 106 132 141 167 16 17 15 24 -3 24 -8 0 -50 -43 -95 -96z"/>
 <path d="M9200 8653 c-25 -45 -164 -332 -176 -367 -29 -81 0 -53 48 46 28 56 71 146 98 198 26 52 50 105 54 118 9 26 -9 30 -24 5z"/>
 <path d="M8495 8620 c-4 -11 -22 -41 -41 -66 -20 -25 -33 -48 -31 -50 18 -18 97 76 97 115 0 27 -17 27 -25 1z"/>
 <path d="M12111 8613 c-7 -15 -25 -43 -42 -64 -42 -53 -38 -83 5 -36 29 32 52 68 58 94 9 33 -7 37 -21 6z"/>
 <path d="M5654 8462 c-6 -4 -23 -29 -38 -57 -14 -27 -33 -60 -42 -72 -9 -12 -11 -24 -5 -27 13 -8 64 60 84 113 18 47 18 54 1 43z"/>
 <path d="M8317 8429 c-9 -5 -24 -23 -32 -38 -13 -26 -13 -30 0 -41 12 -10 15 -9 15 4 0 10 12 33 26 52 27 34 24 42 -9 23z"/>
 <path d="M6621 7843 c-26 -21 -143 -307 -139 -337 2 -14 18 14 46 79 24 55 47 108 53 117 5 10 9 23 9 28 0 6 13 38 29 71 17 32 28 59 27 59 -2 0 -13 -8 -25 -17z"/>
 <path d="M7875 7851 c-22 -9 -92 -82 -120 -125 -23 -35 -9 -48 17 -16 55 70 85 105 108 126 27 26 26 27 -5 15z"/>
 <path d="M8463 7845 c-25 -18 -146 -305 -141 -337 2 -16 14 3 42 67 46 108 58 136 82 195 10 25 24 53 32 63 20 23 11 30 -15 12z"/>
 <path d="M12001 7843 c-21 -19 -141 -302 -141 -334 0 -11 5 -19 10 -19 6 0 10 6 10 14 0 14 50 139 79 196 10 19 21 47 24 61 4 14 18 42 31 62 27 40 21 48 -13 20z"/>
 <path d="M12410 7838 c-39 -28 -126 -135 -116 -145 4 -4 21 9 39 29 71 81 118 138 114 138 -2 0 -19 -10 -37 -22z"/>
 <path d="M13012 7843 c-21 -19 -142 -303 -142 -335 0 -10 5 -18 10 -18 6 0 10 6 10 14 0 8 8 31 19 53 10 21 27 58 36 83 40 102 76 182 94 203 8 9 9 17 4 17 -6 0 -20 -8 -31 -17z"/>
 <path d="M4809 7827 c-38 -32 -101 -115 -97 -126 4 -14 27 6 72 64 22 28 49 58 60 67 16 13 17 18 6 18 -8 0 -27 -10 -41 -23z"/>
 <path d="M5842 7842 c-14 -10 -142 -309 -142 -334 0 -26 17 -22 25 5 4 12 16 42 27 67 28 62 42 97 63 150 10 25 26 62 37 83 19 36 16 45 -10 29z"/>
 <path d="M6248 7839 c-21 -12 -108 -123 -108 -139 0 -21 27 4 80 73 53 70 58 83 28 66z"/>
 <path d="M9220 7808 c-23 -24 -40 -60 -40 -84 0 -27 18 -14 33 25 9 21 23 45 31 54 9 9 12 18 7 22 -6 3 -20 -5 -31 -17z"/>
 <path d="M7120 7788 c-21 -35 -27 -78 -10 -78 5 0 13 12 16 28 4 15 12 34 19 42 24 29 26 40 10 40 -8 0 -24 -15 -35 -32z"/>
 <path d="M8792 7797 c-24 -26 -46 -77 -36 -86 4 -3 9 -1 11 6 2 6 17 30 33 52 32 44 26 64 -8 28z"/>
 <path d="M9767 7648 c-32 -64 -57 -126 -57 -143 0 -23 15 1 65 102 36 73 65 137 65 142 0 31 -22 0 -73 -101z"/>
 <path d="M10812 7637 c-61 -62 -112 -120 -112 -129 0 -11 48 31 120 104 66 68 120 126 120 130 0 19 -22 1 -128 -105z"/>
 <path d="M7426 7586 c-14 -25 -26 -52 -26 -61 0 -15 2 -15 17 1 30 30 57 90 44 99 -5 3 -21 -15 -35 -39z"/>
 <path d="M9506 7581 c-29 -56 -26 -86 5 -48 26 34 39 71 29 87 -6 9 -16 -2 -34 -39z"/>
 <path d="M8372 5370 c-22 -36 -15 -50 26 -50 47 -1 67 -12 136 -78 31 -30 56 -50 56 -47 0 4 -14 32 -31 61 -26 46 -35 54 -60 54 -20 0 -43 12 -72 39 -41 38 -44 39 -55 21z"/>
 </g>
<g id="layer102" fill="#648567" stroke="none">
 <path d="M6755 8531 c0 -200 2 -235 15 -238 11 -3 12 -2 3 4 -9 7 -13 71 -16 238 l-3 230 1 -234z"/>
 <path d="M11024 8530 c0 -118 2 -167 3 -107 2 59 2 155 0 215 -1 59 -3 10 -3 -108z"/>
 <path d="M5164 8510 c0 -113 2 -159 3 -102 2 56 2 148 0 205 -1 56 -3 10 -3 -103z"/>
 <path d="M10450 8414 c0 -99 -2 -115 -15 -110 -8 3 -15 2 -15 -3 0 -5 9 -11 20 -14 19 -5 20 0 20 119 0 68 -2 124 -5 124 -3 0 -5 -52 -5 -116z"/>
 <path d="M8014 7695 c0 -77 2 -107 3 -67 2 40 2 103 0 140 -2 37 -3 4 -3 -73z"/>
 <path d="M7834 3608 c-9 -18 -20 -44 -25 -58 -7 -25 -7 -25 -8 -2 -1 13 -5 20 -11 17 -5 -3 -10 2 -10 12 -1 14 -4 13 -15 -7 -8 -14 -14 -33 -15 -43 0 -24 -20 -11 -20 14 0 12 -7 19 -20 19 -11 0 -20 -6 -20 -13 0 -8 9 -40 20 -72 24 -69 25 -80 4 -42 -19 35 -45 36 -42 2 1 -14 6 -25 11 -25 5 0 6 -7 3 -16 -3 -8 -2 -13 2 -10 14 8 42 -97 42 -156 0 -31 9 -85 20 -120 11 -36 15 -64 10 -66 -15 -5 14 -53 58 -98 21 -21 45 -53 52 -70 8 -19 19 -30 27 -27 23 9 14 49 -20 94 -19 24 -53 78 -76 121 l-42 76 3 167 c2 159 9 200 23 154 4 -12 12 -18 21 -15 8 3 14 0 15 -7 0 -7 8 14 19 46 19 61 37 92 25 44 -11 -43 19 -34 33 10 13 42 12 43 -17 46 -18 1 -21 6 -16 29 9 39 -10 36 -31 -4z"/>
 <path d="M7775 3319 c-11 -17 6 -207 20 -226 21 -29 27 -10 15 58 -5 35 -10 90 -10 122 0 53 -10 71 -25 46z"/>
 <path d="M7984 3145 c-11 -27 7 -36 27 -13 13 16 17 18 13 6 -4 -11 4 -27 20 -43 26 -25 66 -34 66 -14 0 8 4 8 15 -1 16 -13 59 -4 50 11 -4 5 -11 9 -16 9 -6 0 -7 -4 -4 -10 3 -5 -1 -10 -9 -10 -8 0 -18 5 -21 10 -4 6 -11 8 -16 5 -5 -3 -6 1 -3 10 5 12 9 13 20 4 23 -19 16 -2 -8 21 -26 24 -38 26 -38 5 0 -21 -13 -19 -35 5 -21 23 -53 26 -61 5z"/>
 <path d="M7858 2763 c-35 -9 -17 -23 30 -23 56 0 86 14 50 23 -25 7 -53 7 -80 0z"/>
 <path d="M7712 2727 c5 -25 3 -26 -41 -29 -25 -2 -45 -7 -43 -11 2 -5 -4 -14 -14 -21 -35 -26 -6 -37 84 -31 85 4 123 11 227 36 65 16 36 23 -41 9 -52 -9 -118 -14 -149 -11 -28 3 26 21 62 21 41 0 100 16 91 25 -2 3 -36 9 -75 15 -38 5 -78 13 -88 16 -15 6 -17 3 -13 -19z"/>
 <path d="M8177 2663 c-4 -3 -7 -16 -7 -27 -1 -21 -9 -26 -120 -75 -90 -39 -283 -70 -452 -72 -87 -1 -158 -6 -158 -10 0 -4 -26 -11 -57 -15 -32 -4 -67 -10 -78 -15 -18 -7 -18 -8 5 -10 14 -1 32 -2 40 -1 8 0 63 2 122 3 59 1 132 7 162 14 30 7 99 13 153 14 83 0 138 5 138 11 0 1 7 3 15 5 8 2 49 11 90 20 123 27 130 28 140 2 6 -17 4 -26 -13 -40 -20 -17 -20 -20 -4 -28 9 -6 17 -21 17 -34 0 -54 51 -124 105 -144 31 -12 162 -6 179 8 8 7 21 9 27 5 7 -4 9 -3 6 3 -4 6 6 13 23 16 21 5 28 11 24 22 -7 16 -30 20 -38 6 -11 -17 -108 -23 -140 -8 -17 8 -44 19 -61 24 -20 5 -37 21 -50 46 -11 20 -25 37 -30 37 -14 0 -18 87 -5 95 6 4 13 -1 16 -9 7 -19 34 -21 34 -3 0 20 -30 77 -40 77 -5 0 -6 -7 -3 -17 4 -11 3 -14 -5 -9 -7 4 -15 1 -18 -8 -9 -23 -24 -20 -24 4 0 11 4 20 9 20 5 0 14 13 21 29 17 41 0 88 -23 64z"/>
 <path d="M7797 2626 c-10 -8 -59 -17 -117 -21 -97 -7 -118 -15 -82 -31 14 -6 12 -8 -13 -14 -24 -6 -20 -8 25 -8 65 -1 147 17 212 47 26 11 54 21 62 21 8 0 18 5 21 10 10 15 -87 12 -108 -4z"/>
 <path d="M7483 2593 c-13 -2 -23 -11 -23 -19 0 -8 -4 -12 -10 -9 -5 3 -10 -1 -10 -9 0 -8 -8 -17 -17 -19 -18 -4 -2 -2 72 10 43 7 70 27 60 43 -6 10 -30 11 -72 3z"/>
 <path d="M7378 2561 c-27 -4 -53 -12 -60 -19 -7 -7 -19 -12 -27 -12 -19 -1 -57 -28 -49 -35 3 -3 36 2 74 11 74 17 103 30 42 19 -23 -4 -38 -3 -38 3 0 12 34 22 78 22 17 0 32 5 32 10 0 6 -1 9 -2 9 -2 -1 -24 -5 -50 -8z"/>
 <path d="M8018 2475 c-13 -14 -111 -43 -124 -38 -16 6 -56 -11 -88 -37 -18 -14 -18 -13 -12 10 3 14 3 19 0 13 -7 -15 -44 -17 -44 -3 0 24 -31 7 -44 -25 -8 -19 -20 -35 -25 -35 -6 0 -11 -6 -11 -12 0 -7 14 2 30 20 23 25 32 29 36 18 6 -16 59 -12 79 5 14 14 25 11 25 -7 0 -20 -57 -43 -130 -51 -33 -3 -60 -10 -60 -15 0 -5 8 -7 18 -3 11 3 39 7 64 9 50 4 111 25 191 66 85 43 127 71 121 81 -6 10 -18 12 -26 4z"/>
 </g>
<g id="layer103" fill="#60625e" stroke="none">
 <path d="M9743 8757 c31 -79 40 -97 48 -97 25 0 -8 102 -34 106 -11 1 -17 -2 -14 -9z"/>
 <path d="M11263 8757 c40 -100 44 -107 59 -91 12 11 -27 97 -45 100 -11 1 -17 -2 -14 -9z"/>
 <path d="M9840 8513 c10 -26 23 -61 30 -78 8 -21 13 -26 19 -16 12 18 -32 135 -52 139 -14 3 -13 -2 3 -45z"/>
 <path d="M11367 8493 c31 -81 43 -98 42 -57 0 41 -34 118 -52 122 -13 3 -11 -9 10 -65z"/>
 <path d="M5314 7685 c0 -77 2 -107 3 -67 2 40 2 103 0 140 -2 37 -3 4 -3 -73z"/>
 <path d="M8341 6278 c21 -64 32 -88 41 -88 20 0 19 32 -4 71 -30 55 -52 65 -37 17z"/>
 <path d="M8680 5711 c-8 -6 -18 -7 -23 -4 -4 3 -7 -3 -5 -13 4 -24 -45 -52 -50 -28 -2 8 2 23 9 32 12 15 11 15 -3 2 -17 -16 -32 -90 -18 -90 4 0 10 6 13 14 3 7 28 28 56 46 28 18 48 37 45 41 -6 11 -6 11 -24 0z"/>
 <path d="M7692 5680 c-23 -10 -58 -22 -77 -26 -36 -6 -59 -31 -84 -89 l-13 -30 40 38 c40 39 175 102 194 91 6 -4 5 3 -1 15 -7 11 -13 21 -14 21 -1 0 -21 -9 -45 -20z"/>
 <path d="M8530 5372 c20 -41 82 -103 121 -123 44 -22 49 -23 49 -9 0 6 -18 17 -40 26 -24 10 -62 40 -91 73 -28 31 -46 45 -39 33z"/>
 <path d="M7986 3161 c-4 -5 3 -7 14 -4 12 3 35 -8 65 -32 48 -40 56 -55 28 -55 -17 -1 -17 -1 0 -11 17 -10 37 -5 37 9 0 4 -11 19 -25 34 -44 48 -27 67 19 21 14 -14 29 -23 33 -20 3 4 1 7 -5 7 -7 0 -12 6 -12 13 0 11 -43 37 -62 37 -4 0 -8 -8 -8 -17 0 -14 -3 -13 -23 5 -24 23 -52 29 -61 13z"/>
 <path d="M7975 2854 c17 -14 44 -34 60 -45 17 -10 24 -19 16 -19 -16 0 -118 57 -126 71 -4 5 -13 3 -21 -6 -9 -8 -20 -13 -25 -10 -5 4 -9 0 -9 -8 0 -11 -16 -17 -52 -22 -29 -4 -71 -15 -93 -25 -22 -10 -53 -21 -68 -24 -16 -4 -38 -16 -50 -26 -11 -11 -31 -20 -44 -20 -13 0 -31 -9 -40 -20 -10 -11 -23 -20 -29 -20 -6 0 -17 -7 -24 -15 -7 -9 -18 -14 -24 -12 -6 3 -18 -1 -26 -8 -8 -7 -28 -15 -45 -17 -17 -2 -40 -15 -53 -30 -13 -16 -31 -28 -41 -28 -9 0 -22 -5 -29 -12 -7 -7 -12 -9 -12 -5 0 3 -11 -5 -25 -18 -13 -14 -31 -25 -39 -25 -9 0 -20 -10 -27 -21 -18 -35 6 -48 101 -53 50 -3 75 -2 60 3 l-25 8 30 6 c17 3 51 9 78 13 26 3 47 10 47 15 0 4 10 7 23 7 77 -5 307 3 303 10 -3 5 7 7 22 5 15 -2 63 5 107 16 44 11 70 20 58 20 -52 2 -56 14 -7 27 66 18 70 17 49 -6 -20 -23 -12 -25 33 -9 25 9 41 31 42 60 0 4 -10 9 -22 13 -25 7 -30 4 75 49 42 19 46 33 18 68 -10 13 -18 29 -18 34 1 6 -12 16 -28 24 -17 7 -49 29 -72 47 -50 41 -96 48 -48 8z m-37 -91 c18 -4 20 -8 10 -14 -18 -12 -108 -11 -108 0 0 17 58 25 98 14z m-125 -33 c39 -6 73 -12 75 -15 9 -9 -50 -25 -91 -25 -36 0 -90 -18 -62 -21 31 -3 97 2 149 11 77 14 106 7 41 -9 -104 -25 -142 -32 -227 -36 -90 -6 -119 5 -84 31 10 7 16 16 14 21 -2 4 18 9 43 11 44 3 46 4 41 29 -4 22 -2 25 13 19 10 -3 50 -11 88 -16z m92 -100 c-3 -5 -13 -10 -21 -10 -8 0 -36 -10 -62 -21 -65 -30 -147 -48 -212 -47 -45 0 -49 2 -25 8 25 6 27 8 13 14 -36 16 -15 24 82 31 58 4 107 13 117 21 21 16 118 19 108 4z m-350 -40 c9 -14 -19 -40 -42 -40 -11 0 -74 -14 -142 -31 -68 -16 -126 -28 -129 -24 -7 7 29 34 46 35 7 0 23 7 35 14 12 8 48 16 80 18 35 2 57 7 57 15 0 19 84 30 95 13z"/>
 </g>
<g id="layer104" fill="#9f9d9c" stroke="none">
 <path d="M7581 8798 c-46 -26 -201 -202 -201 -230 0 -10 7 -18 16 -18 13 0 14 3 4 15 -10 12 -1 27 48 87 72 88 119 134 128 125 8 -8 64 23 64 35 0 13 -14 9 -59 -14z"/>
 <path d="M10816 8810 c-36 -11 -61 -35 -141 -130 -72 -87 -90 -116 -75 -125 5 -3 10 3 10 14 0 11 36 63 80 115 60 71 87 96 104 96 13 0 34 9 47 20 26 21 20 23 -25 10z"/>
 <path d="M5205 8798 c-11 -6 -23 -16 -27 -22 -4 -6 -8 -116 -8 -243 0 -201 2 -233 15 -233 13 0 15 31 15 218 0 152 -4 222 -12 230 -8 8 -8 15 2 27 10 12 15 13 21 4 5 -8 10 -5 18 10 13 23 6 26 -24 9z"/>
 <path d="M6772 8798 c-14 -14 -18 -498 -4 -498 12 0 23 461 12 475 -6 7 -5 16 2 23 7 7 10 12 7 12 -3 0 -10 -5 -17 -12z"/>
 <path d="M7222 8798 c-17 -17 -17 -191 1 -186 16 6 23 168 6 168 -8 0 -8 4 1 15 15 18 9 20 -8 3z"/>
 <path d="M8951 8796 c-9 -11 -9 -25 -2 -53 6 -21 15 -78 21 -128 10 -79 19 -116 21 -89 0 5 2 17 4 27 2 9 -2 17 -8 17 -8 0 -7 3 2 9 10 6 10 13 3 28 -6 11 -11 28 -11 39 0 10 -2 37 -5 59 -3 22 -7 55 -8 72 -3 38 -2 37 -17 19z"/>
 <path d="M11041 8796 c-17 -20 -11 -498 7 -504 16 -5 18 473 2 483 -8 5 -7 11 1 21 6 8 9 14 6 14 -2 0 -10 -6 -16 -14z"/>
 <path d="M5922 8788 c-8 -8 -12 -49 -12 -120 0 -89 3 -108 15 -108 12 0 15 17 15 94 0 64 -4 96 -12 98 -7 3 -9 12 -5 22 4 11 13 16 22 12 8 -3 15 -1 15 4 0 14 -24 12 -38 -2z"/>
 <path d="M7836 8778 c-12 -17 -16 -48 -16 -120 0 -91 1 -98 20 -98 18 0 20 7 20 88 0 52 -5 93 -11 99 -16 16 -4 44 16 37 8 -3 15 -1 15 5 0 19 -28 12 -44 -11z"/>
 <path d="M9546 8791 c-7 -10 -66 -405 -73 -487 -3 -37 -1 -69 6 -80 9 -16 9 -13 4 15 -4 25 -3 32 5 27 8 -5 12 3 12 24 0 18 8 78 19 134 10 55 24 139 31 186 6 47 13 96 15 110 2 13 -1 30 -7 37 -6 7 -8 20 -4 28 6 16 1 21 -8 6z"/>
 <path d="M10426 8768 c-10 -48 -7 -146 4 -153 14 -9 18 9 23 90 4 49 1 74 -8 82 -10 9 -14 5 -19 -19z"/>
 <path d="M12107 8642 c-17 -62 -45 -97 -155 -190 -34 -29 -62 -57 -62 -62 0 -5 13 5 30 21 16 17 34 28 40 24 13 -8 80 46 80 64 0 7 13 30 29 50 17 21 35 49 42 64 6 14 16 24 20 21 5 -3 9 11 9 30 0 53 -15 44 -33 -22z"/>
 <path d="M5640 8538 c0 -32 -10 -81 -24 -123 -4 -11 0 -6 10 10 9 17 23 34 30 38 20 12 19 107 -1 107 -10 0 -15 -10 -15 -32z"/>
 <path d="M7217 8553 c-4 -3 -7 -62 -7 -130 0 -103 2 -123 15 -123 12 0 15 19 15 109 0 75 -4 111 -12 113 -7 3 -8 10 -4 17 7 11 10 11 17 0 7 -11 9 -10 9 4 0 17 -20 23 -33 10z"/>
 <path d="M8369 8485 c-84 -72 -117 -119 -105 -150 3 -8 13 -15 22 -15 15 0 15 2 1 23 -13 20 -13 26 -1 50 13 24 42 47 60 47 3 0 0 -8 -7 -17 -8 -10 11 2 41 26 76 61 78 63 58 56 -24 -10 -23 4 4 32 36 39 17 25 -73 -52z"/>
 <path d="M10430 8540 c-16 -30 -9 -232 9 -238 11 -4 12 19 10 122 -2 69 -2 122 -1 116 4 -12 22 -3 22 11 0 17 -29 9 -40 -11z"/>
 <path d="M5910 8400 c0 -82 3 -100 15 -100 12 0 15 16 15 84 0 58 -4 86 -12 89 -10 4 -9 8 2 16 13 9 13 11 -2 11 -16 0 -18 -11 -18 -100z"/>
 <path d="M7827 8493 c-4 -3 -7 -48 -7 -100 0 -86 1 -93 20 -93 18 0 20 7 20 85 0 70 -3 85 -16 85 -8 0 -12 5 -9 10 4 6 11 8 16 5 5 -4 9 -1 9 4 0 12 -23 15 -33 4z"/>
 <path d="M10686 8365 c-4 -20 -20 -50 -35 -68 -32 -37 -32 -63 1 -46 11 6 17 17 14 25 -7 19 26 75 42 69 8 -3 12 6 12 25 0 43 -26 39 -34 -5z"/>
 <path d="M5548 8329 c-32 -32 -54 -60 -50 -63 15 -9 74 24 69 38 -3 8 5 29 19 47 22 30 28 41 22 38 -2 -1 -29 -28 -60 -60z"/>
 <path d="M4247 7842 c-29 -31 -21 -340 7 -312 2 3 5 73 7 155 1 83 6 156 11 163 16 20 -7 14 -25 -6z"/>
 <path d="M4597 7842 c-18 -20 -22 -78 -7 -102 8 -13 10 -13 14 0 6 18 17 120 12 120 -2 0 -10 -8 -19 -18z"/>
 <path d="M5338 7846 c-16 -12 -18 -32 -18 -165 0 -129 2 -151 15 -151 14 0 16 21 14 154 0 85 2 160 6 165 8 14 4 13 -17 -3z"/>
 <path d="M6026 7841 c-19 -21 -20 -106 -1 -106 13 0 25 88 12 96 -5 4 -4 9 4 11 8 3 11 8 8 12 -3 3 -14 -2 -23 -13z"/>
 <path d="M6847 7842 c-14 -16 -17 -43 -17 -166 0 -114 3 -147 13 -144 9 3 13 49 17 164 3 87 5 160 4 162 0 1 -8 -6 -17 -16z"/>
 <path d="M7632 7848 c-7 -7 -12 -37 -12 -67 0 -65 17 -58 22 9 2 25 7 51 12 58 9 15 -6 16 -22 0z"/>
 <path d="M8038 7849 c-16 -9 -18 -29 -18 -183 0 -184 1 -186 48 -186 14 0 13 2 -2 13 -16 12 -18 31 -17 180 0 92 3 172 6 177 8 12 5 12 -17 -1z"/>
 <path d="M10058 7843 c-8 -10 -22 -70 -32 -137 -9 -66 -20 -133 -23 -150 -4 -20 -3 -27 5 -22 7 4 12 1 12 -6 1 -31 20 19 20 52 0 19 7 73 15 120 9 47 13 97 9 113 -4 22 -1 29 18 36 14 6 17 10 7 10 -9 1 -23 -7 -31 -16z"/>
 <path d="M10692 7848 c-14 -14 -17 -218 -3 -218 14 0 24 192 11 200 -9 6 -9 9 1 12 8 3 11 8 8 11 -3 4 -11 1 -17 -5z"/>
 <path d="M11227 7845 c-16 -11 -18 -30 -17 -176 1 -96 6 -169 12 -176 6 -7 20 -13 31 -13 20 0 20 0 1 18 -18 16 -19 29 -14 187 3 94 5 171 5 172 0 1 -8 -5 -18 -12z"/>
 <path d="M11538 7846 c-16 -12 -18 -32 -18 -165 0 -97 4 -151 10 -151 17 0 19 17 22 178 2 83 3 152 3 152 0 0 -8 -7 -17 -14z"/>
 <path d="M12188 7849 c-25 -14 -26 -116 -2 -116 12 0 15 11 13 52 -1 28 1 57 5 63 9 14 6 15 -16 1z"/>
 <path d="M12586 7841 c-14 -16 -17 -41 -16 -177 1 -93 6 -164 12 -171 6 -7 20 -13 32 -13 21 1 21 1 1 18 -19 16 -20 26 -15 175 3 101 1 157 -5 157 -5 0 -3 4 5 10 8 5 12 11 9 15 -3 3 -13 -3 -23 -14z"/>
 <path d="M10991 7829 c-10 -20 -11 -38 -3 -75 5 -27 8 -86 6 -131 -2 -50 1 -85 7 -89 6 -3 12 -4 13 -3 2 2 1 76 -3 164 -6 142 -8 157 -20 134z"/>
 <path d="M10237 7779 c-4 -13 -7 -80 -7 -149 0 -131 5 -150 44 -150 19 0 19 0 0 18 -17 15 -19 30 -16 137 2 66 -1 131 -6 144 l-9 25 -6 -25z"/>
 <path d="M8750 7744 c-16 -41 -13 -114 5 -114 10 0 15 10 15 28 0 15 3 38 6 52 4 19 3 22 -5 10 -15 -22 -23 -6 -12 24 6 14 8 26 6 26 -3 0 -10 -12 -15 -26z"/>
 <path d="M10811 7646 c-102 -102 -122 -127 -118 -147 l4 -24 2 25 c1 31 222 257 240 246 6 -4 11 0 11 8 0 9 -3 16 -8 16 -4 0 -63 -56 -131 -124z"/>
 <path d="M7087 7730 c-13 -47 -6 -110 13 -110 4 0 10 20 12 45 2 25 0 45 -4 45 -4 0 -8 10 -10 23 -3 22 -4 21 -11 -3z"/>
 <path d="M9167 7708 c-8 -39 0 -88 13 -88 4 0 10 20 12 45 2 25 0 45 -4 45 -3 0 -8 8 -10 18 -2 10 -7 1 -11 -20z"/>
 <path d="M10500 7635 c0 -63 4 -105 10 -105 6 0 10 42 10 105 0 63 -4 105 -10 105 -6 0 -10 -42 -10 -105z"/>
 <path d="M4590 7681 c-11 -21 -14 -110 -4 -135 13 -35 24 -13 24 49 0 38 -4 65 -10 65 -7 0 -7 6 0 20 6 11 8 20 6 20 -3 0 -10 -9 -16 -19z"/>
 <path d="M6021 7686 c-16 -19 -10 -148 7 -154 9 -3 12 14 12 61 0 43 -4 67 -12 70 -10 3 -10 7 1 20 7 10 11 17 8 17 -2 0 -10 -6 -16 -14z"/>
 <path d="M7447 7693 c-4 -3 -7 -17 -7 -30 0 -13 -7 -39 -14 -58 -18 -43 -12 -46 9 -5 9 17 20 28 25 25 6 -4 10 11 10 34 0 38 -8 50 -23 34z"/>
 <path d="M7627 7693 c-12 -11 -8 -163 4 -163 7 0 10 26 8 74 -2 41 0 78 4 82 4 4 7 2 7 -4 0 -7 5 -12 11 -12 8 0 8 5 -1 15 -14 16 -23 19 -33 8z"/>
 <path d="M12181 7687 c-6 -6 -11 -43 -11 -84 0 -58 3 -73 15 -73 20 0 22 126 3 133 -10 4 -10 7 0 18 9 9 12 10 12 1 0 -7 5 -12 10 -12 15 0 12 17 -4 23 -7 3 -19 0 -25 -6z"/>
 <path d="M8593 5583 c-52 -36 -62 -54 -44 -81 6 -10 19 -6 59 18 60 38 94 35 148 -12 30 -26 34 -28 34 -11 0 26 -108 123 -137 123 -4 0 -32 -17 -60 -37z"/>
 <path d="M7820 5421 c-17 -5 -26 -15 -28 -31 -6 -53 -24 -79 -61 -91 -66 -21 -116 -84 -100 -126 11 -29 30 -29 55 -1 10 12 13 18 7 14 -22 -13 -14 19 10 42 25 24 53 30 41 10 -4 -7 8 1 27 19 42 38 107 75 120 68 5 -4 9 -1 9 4 0 6 7 11 16 11 15 0 15 3 -1 28 -18 29 -53 63 -64 61 -3 -1 -17 -4 -31 -8z"/>
 <path d="M8414 5420 c-37 -15 -35 -26 11 -69 31 -29 53 -41 74 -41 24 0 34 -8 56 -45 14 -25 23 -50 19 -57 -4 -7 -3 -8 4 -4 7 4 12 1 12 -7 0 -13 30 -47 43 -47 10 0 -11 59 -35 98 -12 20 -42 61 -65 89 -24 29 -43 60 -43 68 0 8 -6 15 -14 15 -8 0 -20 2 -28 4 -7 3 -23 1 -34 -4z"/>
 <path d="M7707 2374 c-11 -14 -29 -30 -40 -35 -37 -16 98 -1 138 15 19 8 35 22 35 30 0 17 -15 22 -24 7 -10 -15 -70 -19 -81 -5 -8 10 -14 8 -28 -12z"/>
 </g>
<g id="layer105" fill="#3d5962" stroke="none">
 <path d="M9230 8770 c0 -9 7 -26 16 -38 9 -13 42 -76 74 -140 47 -95 58 -111 57 -84 0 17 -4 32 -9 32 -4 0 -8 6 -8 14 0 8 -5 16 -10 18 -6 2 -12 13 -13 25 0 12 -5 19 -10 16 -4 -3 -7 1 -5 9 1 7 -7 28 -20 45 -13 18 -24 42 -25 52 0 11 -5 17 -9 15 -4 -3 -8 -1 -8 3 0 5 -7 18 -15 29 -11 15 -14 16 -15 4z"/>
 <path d="M11204 7680 c0 -85 2 -120 3 -77 2 42 2 112 0 155 -1 42 -3 7 -3 -78z"/>
 <path d="M11514 7685 c0 -82 2 -115 3 -72 2 43 2 110 0 150 -1 40 -3 5 -3 -78z"/>
 <path d="M6824 7680 c0 -80 2 -112 3 -72 2 39 2 105 0 145 -1 39 -3 7 -3 -73z"/>
 <path d="M9845 7810 c-4 -6 -1 -9 7 -8 8 2 28 -27 49 -71 20 -41 38 -70 41 -65 7 12 -64 148 -79 151 -7 2 -15 -2 -18 -7z"/>
 <path d="M7846 3665 c-8 -8 -18 -24 -21 -35 -8 -24 -18 -25 -35 -5 -7 8 -19 15 -27 15 -7 0 -16 -7 -19 -15 -4 -8 -12 -15 -20 -15 -8 0 -14 -5 -14 -11 0 -7 -8 -18 -17 -25 -16 -12 -15 -13 10 -14 20 0 27 -5 27 -19 0 -25 20 -38 20 -14 1 10 7 29 15 43 11 20 14 21 15 7 0 -10 5 -15 10 -12 6 3 10 -4 11 -17 1 -23 1 -23 8 2 23 76 70 124 56 58 -6 -26 -5 -31 5 -21 10 9 16 9 26 -1 10 -11 10 -21 2 -50 -12 -39 -45 -53 -35 -15 11 43 -12 3 -26 -46 -9 -27 -16 -45 -16 -38 -1 7 -7 10 -15 7 -9 -3 -17 3 -21 15 -14 46 -21 5 -23 -154 l-3 -167 42 -76 c23 -43 54 -93 69 -112 15 -19 33 -48 41 -64 8 -17 37 -44 69 -63 58 -34 107 -47 55 -14 -16 11 -43 31 -60 45 -48 40 -2 33 48 -8 23 -18 55 -40 72 -47 16 -8 29 -18 28 -24 0 -5 8 -21 18 -34 28 -35 24 -49 -18 -68 -106 -46 -101 -42 -75 -49 19 -6 22 -11 17 -32 -7 -27 -5 -27 67 6 25 12 38 25 40 41 4 32 24 38 33 11 7 -23 -12 -80 -26 -80 -5 0 -9 -9 -9 -20 0 -24 15 -27 24 -4 3 9 11 12 18 8 8 -5 9 -2 5 9 -3 10 -2 17 3 17 10 0 40 -57 40 -77 0 -18 -27 -16 -34 3 -3 8 -10 13 -16 9 -13 -8 -9 -95 5 -95 5 0 19 -17 30 -37 13 -25 30 -41 50 -46 17 -5 42 -15 57 -22 17 -9 27 -10 25 -3 -1 6 4 13 12 16 10 3 12 0 8 -12 -8 -21 11 -21 64 0 31 13 58 15 116 10 82 -6 96 -12 73 -26 -8 -6 -13 -10 -10 -10 3 -1 88 -3 190 -5 174 -4 181 -3 120 9 -36 8 -108 16 -160 19 -95 5 -192 27 -220 50 -9 7 -24 32 -35 57 -10 25 -26 53 -34 63 -10 12 -17 42 -18 77 -1 33 -6 68 -12 79 -6 11 -11 46 -11 78 0 32 -9 94 -20 138 -11 44 -20 86 -20 93 0 16 -36 68 -76 108 -32 33 -130 69 -157 58 -8 -3 -18 -1 -22 5 -8 14 -25 14 -25 1 0 -5 11 -12 25 -16 31 -8 28 -28 -6 -32 -13 -2 -29 -8 -35 -13 -17 -14 -77 17 -97 50 -16 26 -16 26 -17 3 0 -14 -5 -22 -12 -19 -7 2 -13 19 -13 38 0 43 26 51 61 18 20 -19 24 -20 24 -6 0 20 21 22 38 5 6 -6 14 -9 17 -6 4 3 -7 15 -23 27 -32 23 -33 8 3 196 22 113 24 227 6 249 -18 22 -42 20 -48 -4 -8 -29 -19 -25 -32 10 -6 20 -17 30 -30 30 -22 0 -61 -36 -61 -57 0 -7 -4 -13 -10 -13 -5 0 -10 13 -10 28 0 27 -31 72 -50 72 -5 0 -15 -7 -24 -15z m-46 -392 c0 -32 5 -87 10 -122 12 -68 6 -87 -15 -58 -14 19 -31 209 -20 226 15 25 25 7 25 -46z"/>
 <path d="M7684 3394 c15 -40 17 -65 6 -79 -6 -8 -8 -19 -4 -26 4 -7 9 -30 12 -53 2 -23 10 -55 17 -72 7 -17 16 -50 20 -72 6 -38 20 -60 30 -50 2 2 -5 32 -15 67 -11 34 -20 89 -20 120 0 51 -34 181 -47 181 -3 0 -2 -7 1 -16z"/>
 <path d="M8059 2506 c-2 -2 -23 -6 -47 -10 -24 -3 -46 -8 -50 -10 -8 -5 -55 -12 -157 -22 -38 -5 -73 -9 -77 -10 -5 -1 -12 -2 -18 -3 -5 0 -10 -9 -10 -19 0 -10 -7 -27 -15 -38 -17 -23 -19 -34 -4 -34 5 0 17 16 25 35 14 35 38 46 47 23 3 -10 9 -10 27 0 20 12 21 12 15 -8 -6 -19 -5 -19 31 5 22 15 51 25 73 25 20 1 54 8 76 17 22 8 51 15 65 15 23 0 39 12 40 31 0 7 -14 10 -21 3z"/>
 <path d="M8150 2415 c0 -14 7 -41 15 -60 22 -54 103 -120 122 -101 4 3 0 6 -8 6 -21 0 -86 62 -98 94 -6 15 -11 38 -11 51 0 13 -4 27 -10 30 -6 4 -10 -5 -10 -20z"/>
 </g>
<g id="layer106" fill="#91715a" stroke="none">
 <path d="M10125 7299 c-33 -16 -69 -29 -80 -29 -11 0 -43 -14 -70 -31 -209 -129 -241 -147 -355 -195 -36 -15 -87 -42 -115 -61 -51 -34 -79 -41 -90 -23 -25 40 -112 -32 -143 -120 -11 -30 -32 -86 -46 -124 -31 -81 -32 -131 -1 -131 16 0 24 13 39 58 14 45 29 66 63 94 25 20 57 55 73 78 26 38 41 46 157 92 131 52 256 93 398 133 44 13 130 40 191 61 61 21 135 43 165 50 64 13 334 99 400 127 26 11 49 25 53 30 10 16 -79 22 -333 21 l-246 -1 -60 -29z"/>
 <path d="M9189 6487 c-8 -12 -44 -89 -79 -172 -63 -150 -102 -276 -113 -370 l-6 -50 31 65 c16 36 36 88 43 115 8 28 48 134 89 237 42 103 76 190 76 193 0 14 -27 2 -41 -18z"/>
 <path d="M8069 6415 c-15 -8 -29 -22 -33 -31 -5 -13 -2 -15 16 -9 80 24 105 26 149 10 74 -27 83 -29 75 -16 -11 18 -82 51 -108 50 -13 0 -34 2 -48 5 -14 3 -37 -1 -51 -9z"/>
 <path d="M7946 6270 c-21 -22 -46 -40 -56 -40 -35 0 -30 -18 10 -34 22 -9 42 -16 44 -16 2 0 6 18 9 41 3 23 15 52 28 65 12 13 18 24 13 24 -6 0 -27 -18 -48 -40z"/>
 <path d="M8304 6281 c16 -17 32 -46 35 -65 4 -24 10 -33 18 -28 9 6 7 21 -6 62 -16 48 -21 55 -47 58 l-29 4 29 -31z"/>
 <path d="M8312 5930 c-67 -36 -74 -43 -38 -36 18 3 34 -1 44 -11 15 -14 17 -13 25 13 5 16 16 37 25 47 21 24 6 20 -56 -13z"/>
 <path d="M8582 5754 c-41 -49 -63 -126 -53 -184 5 -25 9 -40 10 -34 0 6 26 28 56 49 64 44 71 42 152 -29 35 -30 44 -45 40 -63 -5 -26 5 -30 23 -8 9 11 9 22 1 48 -17 52 -80 145 -102 152 -21 7 -97 -37 -106 -62 -11 -28 -21 -11 -16 25 6 45 37 76 62 63 26 -14 46 2 32 26 -9 18 -53 53 -65 53 -2 0 -18 -16 -34 -36z"/>
 <path d="M7666 5640 c-42 -18 -87 -46 -115 -73 -25 -24 -54 -47 -63 -50 -10 -4 -18 -13 -18 -21 0 -25 27 -25 51 1 54 58 126 63 175 12 15 -16 31 -29 35 -29 10 0 42 126 36 141 -3 8 -6 1 -6 -15 -1 -24 -3 -27 -16 -16 -19 16 -19 34 0 50 14 12 12 31 -3 29 -4 0 -38 -13 -76 -29z"/>
 <path d="M7733 5355 c-35 -35 -88 -81 -119 -101 -45 -30 -54 -41 -50 -58 3 -12 6 -31 6 -42 0 -29 24 -37 63 -20 18 8 26 15 19 15 -7 1 -16 11 -21 24 -16 42 34 105 101 126 20 7 39 20 43 29 7 15 24 93 21 91 0 0 -29 -29 -63 -64z"/>
 <path d="M8490 5405 c0 -8 20 -40 44 -70 55 -67 93 -132 98 -165 6 -46 38 -55 38 -11 0 17 5 33 10 36 20 13 9 35 -27 54 -44 23 -90 69 -127 129 -28 45 -36 51 -36 27z"/>
 <path d="M8137 5342 c-10 -10 -17 -29 -17 -41 0 -31 -23 -71 -59 -104 -18 -16 -31 -37 -31 -51 0 -17 -9 -27 -30 -36 -48 -20 -65 -70 -24 -70 20 0 17 -18 -6 -32 -24 -15 -26 -28 -5 -28 21 0 19 -14 -6 -36 -12 -10 -27 -32 -34 -49 -9 -19 -31 -39 -62 -56 -67 -36 -66 -52 5 -78 32 -12 85 -44 118 -71 l59 -49 53 30 52 29 50 -26 c28 -14 53 -30 56 -35 17 -28 90 8 134 67 14 18 46 42 72 54 55 24 63 33 47 57 -7 12 -25 19 -55 20 -24 1 -59 6 -78 13 -38 12 -81 54 -72 69 4 5 2 12 -4 16 -17 11 -12 38 6 31 9 -4 0 10 -20 31 -20 21 -36 41 -36 46 0 5 25 -5 56 -23 31 -17 59 -29 62 -25 3 3 -12 23 -33 45 -29 30 -36 43 -28 51 9 9 6 20 -13 44 -13 17 -24 37 -24 43 0 37 -87 182 -109 182 -4 0 -15 -8 -24 -18z"/>
 <path d="M7165 5119 c-67 -14 -126 -35 -128 -44 -1 -5 -14 -9 -29 -9 -16 1 -28 -3 -28 -8 0 -5 -5 -6 -12 -2 -7 5 -8 3 -3 -6 6 -10 4 -12 -9 -7 -10 4 -15 3 -11 -3 3 -6 1 -10 -6 -10 -7 0 -10 -3 -6 -6 3 -4 23 4 44 16 l38 23 -43 -45 c-24 -25 -61 -58 -82 -74 -32 -23 -40 -37 -46 -72 -3 -24 -4 -45 -2 -48 16 -15 290 181 373 265 37 39 38 41 15 40 -14 -1 -43 -5 -65 -10z"/>
 <path d="M9155 5040 c36 -43 88 -99 116 -124 51 -46 199 -140 199 -127 0 4 -5 34 -12 67 -8 43 -19 65 -37 79 -59 46 -137 120 -143 137 -4 10 -11 19 -15 19 -4 1 -17 3 -28 4 -11 2 -40 8 -65 14 -84 20 -85 17 -15 -69z"/>
 </g>
<g id="layer107" fill="#735833" stroke="none">
 <path d="M9723 7323 c-20 -4 -73 -65 -119 -138 -24 -39 -110 -118 -149 -137 -16 -9 -46 -18 -66 -22 -35 -6 -99 -49 -161 -108 -26 -25 -28 -31 -23 -75 6 -44 4 -52 -32 -103 -87 -122 -127 -217 -172 -410 -21 -92 -28 -144 -36 -290 -3 -52 -8 -126 -11 -165 l-5 -70 21 38 c12 21 23 62 26 91 7 88 48 224 114 381 35 83 71 160 79 172 21 30 45 30 35 1 -11 -39 1 -18 83 144 l80 157 -53 -45 c-41 -36 -56 -56 -70 -102 -15 -44 -23 -57 -39 -57 -31 0 -30 50 1 131 14 38 35 94 46 124 31 88 118 160 143 120 11 -18 39 -11 90 23 28 19 79 46 115 61 114 48 146 66 355 195 27 17 59 31 70 31 11 0 47 13 80 29 l60 29 -220 0 c-121 0 -230 -3 -242 -5z"/>
 <path d="M10740 7321 l35 -6 -25 -19 c-19 -14 -20 -17 -5 -11 11 4 39 14 63 22 23 8 42 17 42 19 0 2 -33 3 -72 3 -53 -1 -63 -3 -38 -8z"/>
 <path d="M10285 7145 c-57 -15 -194 -63 -182 -64 9 -1 250 70 256 75 8 7 -24 2 -74 -11z"/>
 <path d="M12671 7104 c-24 -31 -25 -33 -11 -70 10 -24 9 -26 -5 -14 -14 12 -16 10 -13 -11 2 -13 9 -34 16 -46 7 -12 9 -29 6 -37 -4 -9 -2 -22 4 -29 5 -6 12 -24 16 -39 5 -21 3 -28 -9 -28 -18 0 -19 -5 -4 -32 6 -11 13 -35 16 -52 3 -17 13 -42 22 -56 16 -23 40 -102 103 -350 12 -47 24 -87 27 -90 4 -3 6 -9 6 -15 1 -30 18 -111 25 -115 4 -3 10 -25 13 -50 9 -67 36 -191 49 -223 7 -19 8 -31 1 -38 -6 -6 -7 -26 -2 -52 4 -23 8 -45 9 -49 0 -4 6 -5 14 -2 10 4 16 -12 23 -63 5 -42 13 -67 20 -66 6 1 14 -16 18 -40 4 -23 11 -47 16 -53 5 -6 11 -63 13 -125 3 -66 9 -115 15 -117 6 -2 8 -16 4 -33 -4 -19 -1 -29 7 -29 9 0 10 -10 5 -36 -4 -24 -3 -34 4 -29 6 3 11 -1 11 -11 0 -10 3 -15 6 -12 10 11 17 160 17 383 0 366 -44 652 -159 1040 -30 102 -41 135 -81 240 -8 22 -22 58 -30 80 -41 109 -131 295 -142 295 -5 0 -19 -12 -30 -26z"/>
 <path d="M7982 6520 c-68 -16 -98 -76 -59 -119 29 -31 83 -54 109 -45 15 4 17 8 8 14 -9 6 -7 13 9 29 26 26 69 37 92 23 11 -7 20 -8 24 -2 6 10 68 -14 98 -39 14 -11 15 -16 5 -24 -8 -5 -2 -6 17 -2 40 9 57 24 53 49 -1 12 4 36 11 54 17 40 9 50 -45 63 -47 10 -276 10 -322 -1z"/>
 <path d="M7852 6330 c-12 -5 -27 -21 -34 -35 -21 -46 19 -96 87 -109 24 -5 22 -3 -9 9 -54 21 -72 36 -54 46 8 4 27 6 43 5 20 -3 37 5 62 27 18 17 33 33 33 37 0 6 -82 31 -98 29 -4 0 -17 -4 -30 -9z"/>
 <path d="M8340 6321 c-24 -7 -24 -7 -3 -13 24 -6 67 -82 59 -104 -7 -18 5 -18 30 0 18 14 18 15 1 43 -10 15 -24 40 -30 56 -12 28 -16 30 -57 18z"/>
 <path d="M8105 6091 c-38 -6 -42 -10 -73 -74 -18 -37 -39 -70 -46 -73 -8 -3 -42 9 -76 26 -34 17 -64 30 -66 28 -2 -2 3 -25 11 -52 8 -26 13 -51 12 -56 -1 -4 27 -35 61 -67 l64 -60 -20 -39 c-11 -21 -38 -97 -61 -169 -35 -111 -39 -130 -26 -138 16 -8 55 -78 55 -97 0 -6 -10 -8 -24 -4 -45 11 -94 -15 -174 -93 -107 -104 -170 -128 -173 -64 -1 14 -3 40 -5 58 -1 23 2 33 14 35 8 2 -21 4 -66 5 -75 3 -82 1 -93 -19 -10 -19 -7 -25 30 -57 23 -20 41 -40 41 -45 0 -6 -9 -19 -20 -31 -18 -19 -27 -21 -63 -14 l-42 7 -55 -61 c-135 -153 -214 -222 -320 -283 -58 -34 -112 -63 -121 -67 -9 -3 -33 -29 -53 -57 -21 -29 -33 -49 -27 -45 6 3 11 1 11 -4 0 -6 -5 -11 -11 -11 -5 0 -8 -4 -4 -9 3 -5 -3 -12 -12 -14 -17 -4 -17 -5 0 -6 9 0 17 -7 17 -15 0 -11 10 -13 43 -9 47 5 97 22 97 32 0 4 16 13 35 20 19 7 35 17 35 22 0 5 5 9 10 9 14 0 160 93 249 159 50 38 81 69 81 83 0 4 3 7 8 7 4 -1 9 0 12 1 3 2 37 4 75 5 39 1 75 4 80 5 24 7 76 -17 148 -71 48 -36 100 -64 133 -74 33 -9 76 -33 110 -61 56 -46 57 -46 96 -33 21 7 37 16 36 21 -8 22 -118 99 -170 119 -71 26 -72 42 -5 78 31 17 53 37 62 56 7 17 22 39 34 49 25 22 27 36 6 36 -21 0 -19 13 5 28 23 14 26 32 6 32 -41 0 -24 50 24 70 21 9 30 19 30 36 0 14 13 35 31 51 37 33 59 73 59 106 0 13 9 32 21 43 21 19 21 19 51 -16 29 -34 78 -129 78 -152 0 -6 11 -26 24 -43 19 -24 22 -35 13 -44 -8 -8 -1 -21 28 -51 21 -22 36 -42 33 -45 -3 -4 -31 8 -62 25 -31 18 -56 28 -56 23 0 -5 16 -25 36 -46 20 -21 29 -35 20 -31 -18 7 -23 -20 -6 -31 6 -4 8 -11 4 -16 -9 -15 34 -57 72 -69 19 -7 54 -12 78 -13 30 -1 48 -8 55 -20 16 -24 8 -33 -47 -57 -26 -12 -58 -36 -72 -55 -14 -18 -42 -45 -63 -58 -41 -27 -41 -28 17 -47 l38 -12 72 70 c85 84 277 196 336 196 40 -1 102 -9 143 -19 15 -4 27 -3 27 2 0 24 -50 79 -105 118 -46 31 -67 55 -90 99 l-30 58 21 17 c13 10 26 38 32 66 6 28 10 50 9 51 -9 7 -105 9 -101 2 3 -4 -2 -22 -10 -40 -9 -17 -16 -42 -16 -55 0 -12 -3 -23 -6 -23 -11 0 -127 77 -166 110 -21 18 -38 38 -38 45 0 17 -64 38 -90 30 -12 -4 -20 -2 -20 5 0 23 29 78 49 92 20 14 20 17 6 69 -13 48 -41 165 -65 273 -5 22 -7 43 -4 47 2 5 40 33 83 63 48 34 83 66 89 83 18 46 23 87 12 103 -8 12 -13 11 -37 -11 -15 -14 -48 -38 -73 -54 -25 -15 -36 -24 -25 -21 17 5 16 2 -6 -17 -14 -13 -30 -36 -36 -52 -8 -25 -10 -26 -25 -12 -10 10 -26 14 -44 11 -23 -3 -25 -2 -13 6 16 9 15 15 -2 71 -10 33 -19 74 -19 90 0 26 -3 29 -34 29 -19 0 -40 2 -48 4 -7 1 -31 0 -53 -3z"/>
 <path d="M7524 5893 c-23 -54 -48 -120 -57 -148 -18 -58 -28 -274 -12 -275 6 -1 11 9 13 20 2 12 14 25 26 30 13 4 29 23 36 42 24 59 48 85 85 92 19 4 54 15 77 26 23 10 46 16 51 13 5 -3 2 6 -7 20 -15 23 -20 24 -54 15 -20 -6 -50 -11 -67 -12 -24 -1 -37 -12 -75 -64 l-45 -63 -3 66 c-3 69 17 158 62 273 40 100 14 71 -30 -35z"/>
 <path d="M7238 5131 c24 -15 -151 -163 -306 -259 -46 -29 -85 -52 -88 -52 -2 0 -4 8 -5 18 0 15 -7 -4 -35 -108 -7 -24 -7 -24 10 -7 10 9 88 64 174 121 86 58 191 134 232 171 41 36 87 73 103 83 35 21 34 28 -4 36 -46 9 -97 7 -81 -3z"/>
 <path d="M9008 5114 c12 -8 57 -59 101 -112 102 -126 137 -158 246 -228 50 -31 99 -65 110 -74 11 -10 34 -26 50 -36 23 -14 27 -15 18 -3 -7 9 -24 45 -37 80 -14 35 -25 59 -26 52 0 -16 -139 69 -199 123 -28 25 -79 80 -115 124 -53 63 -62 80 -48 83 9 3 -14 5 -53 6 -65 1 -68 0 -47 -15z"/>
 <path d="M9113 4765 c1 -11 17 -35 35 -53 34 -35 41 -48 20 -37 -7 4 -4 -1 6 -9 11 -9 26 -16 33 -16 7 0 13 -3 13 -8 0 -4 9 -12 20 -17 10 -6 63 -36 116 -67 53 -32 102 -58 108 -58 7 0 16 -4 22 -8 33 -28 308 -110 323 -96 5 4 -25 64 -41 84 -7 8 -27 15 -45 16 -40 1 -173 44 -173 55 0 5 -4 8 -9 7 -5 -2 -18 3 -28 9 -22 16 -176 108 -223 135 -19 11 -39 24 -44 29 -6 5 -18 9 -29 9 -10 0 -26 7 -34 16 -9 9 -26 14 -39 11 -13 -2 -26 1 -28 7 -3 6 -4 2 -3 -9z"/>
 <path d="M6520 4463 c-41 -67 -40 -71 23 -60 65 11 117 35 111 52 -3 7 -23 18 -45 25 -21 7 -39 17 -39 22 0 21 -23 4 -50 -39z"/>
 </g>
<g id="layer108" fill="#cdcf52" stroke="none">
 <path d="M12150 5333 c0 -15 2 -16 10 -3 5 8 10 10 10 4 0 -6 -2 -13 -5 -16 -3 -3 -7 -122 -9 -264 -2 -143 -6 -272 -10 -289 -3 -16 -8 -50 -10 -75 -11 -128 -91 -418 -152 -550 -38 -82 -75 -153 -87 -169 -12 -14 -32 -47 -43 -71 -6 -12 -76 -109 -111 -155 -5 -5 -39 -50 -78 -100 -61 -79 -103 -131 -195 -239 -107 -126 -435 -459 -545 -553 -33 -29 -73 -64 -90 -78 -16 -15 -57 -47 -90 -73 -33 -25 -62 -49 -65 -52 -5 -7 -209 -158 -266 -198 -28 -19 -32 -29 -38 -84 -16 -135 -65 -274 -148 -415 -46 -78 -80 -120 -64 -77 29 75 81 307 91 408 l8 69 -29 -19 c-52 -34 -69 -44 -94 -55 -13 -5 -27 -13 -30 -17 -3 -4 -25 -18 -50 -31 -66 -36 -66 -35 -126 -153 -60 -116 -135 -237 -192 -306 -19 -23 -33 -44 -31 -46 5 -4 246 55 299 72 19 7 82 26 140 43 163 48 378 122 427 147 10 6 38 18 63 28 237 93 583 277 795 422 99 68 257 185 278 206 9 9 18 16 21 16 3 0 18 12 33 26 15 15 52 47 82 73 65 55 241 227 241 235 0 3 21 26 48 51 26 25 39 43 30 39 -15 -5 -18 -1 -18 23 0 16 6 35 12 41 10 10 10 17 0 32 -9 15 -9 21 1 27 14 10 16 55 2 65 -6 5 -5 8 3 8 7 0 12 6 11 13 -2 6 3 36 9 65 7 29 11 56 10 60 -1 4 3 17 10 29 7 12 12 26 11 30 -3 20 2 34 10 28 6 -3 8 3 6 15 -2 11 0 22 4 24 4 3 8 24 9 46 1 22 9 54 17 70 8 16 15 37 15 48 0 10 5 23 12 30 7 7 9 12 5 12 -4 0 -2 10 5 23 6 12 12 31 13 42 3 48 18 94 28 88 6 -4 8 0 4 10 -3 9 0 22 7 29 10 10 11 19 3 35 -8 17 -7 30 3 49 17 30 19 76 5 86 -6 5 -5 8 3 8 6 0 12 9 12 21 0 12 -4 17 -11 13 -8 -4 -8 -1 -1 12 5 11 7 31 5 47 -2 15 1 27 7 27 7 0 8 6 1 18 -6 10 -13 50 -16 88 -10 108 -12 118 -18 134 -7 18 -17 73 -21 115 -7 71 -19 124 -27 120 -4 -3 -6 10 -4 30 3 19 2 35 -3 35 -4 0 -9 17 -10 38 -2 20 -5 46 -7 57 -1 11 -3 26 -4 33 0 7 -5 11 -9 8 -5 -3 -9 1 -9 9 0 8 3 15 7 15 4 0 7 7 7 15 0 8 -4 15 -8 15 -4 0 -7 6 -6 13 2 54 -5 98 -18 111 -9 9 -11 17 -5 21 5 3 10 12 10 18 0 7 -4 6 -10 -3 -8 -12 -10 -11 -10 8 0 12 -5 22 -11 22 -5 0 -7 4 -4 10 3 5 1 19 -5 30 -8 15 -8 20 2 20 11 0 10 2 0 9 -7 4 -14 18 -15 29 -1 12 -4 22 -8 22 -4 0 -6 14 -5 31 0 18 -5 34 -11 36 -8 3 -13 -3 -13 -14z"/>
 <path d="M9745 2064 c-38 -15 -136 -59 -190 -84 -22 -10 -58 -25 -80 -34 -22 -8 -69 -26 -105 -40 -67 -26 -377 -127 -465 -152 -80 -22 -302 -71 -400 -88 -49 -9 -128 -22 -175 -30 -47 -8 -121 -18 -165 -21 -44 -3 -114 -10 -155 -15 -128 -15 -390 -22 -500 -12 -58 5 -111 6 -119 2 -60 -31 923 -48 1264 -22 295 22 840 98 873 121 40 28 264 374 250 386 -2 1 -17 -4 -33 -11z"/>
 </g>
<g id="layer109" fill="#9c9e21" stroke="none">
 <path d="M12630 7054 c-8 -8 -37 -29 -65 -47 -27 -18 -69 -58 -93 -90 -24 -31 -52 -61 -62 -67 -10 -5 -62 -21 -116 -35 -55 -14 -115 -31 -134 -39 -19 -8 -57 -22 -85 -32 -38 -13 -69 -37 -127 -97 -43 -43 -78 -86 -78 -94 0 -8 8 -35 19 -61 24 -63 52 -142 57 -166 4 -20 23 -86 49 -166 8 -25 16 -56 19 -70 2 -14 13 -58 24 -98 12 -40 21 -75 21 -77 0 -3 3 -15 6 -28 3 -12 7 -35 10 -52 7 -36 11 -58 21 -105 4 -19 7 -45 8 -57 0 -13 3 -23 6 -23 3 0 6 -18 6 -40 1 -22 8 -48 15 -57 11 -13 11 -15 1 -9 -11 7 -11 3 0 -20 7 -16 13 -48 13 -71 -1 -24 2 -43 6 -43 4 0 9 -11 11 -25 5 -26 -6 -35 -15 -12 -4 7 -6 6 -6 -4 -1 -9 9 -19 20 -22 18 -5 21 -11 16 -36 -4 -17 -3 -31 1 -31 4 0 8 -10 9 -22 1 -11 8 -25 15 -29 10 -7 11 -9 0 -9 -10 0 -10 -5 -2 -20 6 -11 8 -25 5 -30 -3 -6 -1 -10 4 -10 6 0 11 -10 11 -22 0 -19 2 -20 10 -8 6 9 10 10 10 3 0 -6 -5 -15 -10 -18 -6 -4 -4 -12 5 -21 13 -13 20 -57 18 -111 -1 -7 2 -13 6 -13 4 0 8 -7 8 -15 0 -8 -3 -15 -7 -15 -4 0 -7 -7 -7 -15 0 -8 4 -12 9 -9 4 3 9 -1 9 -8 1 -7 3 -22 4 -33 2 -11 5 -37 7 -57 1 -21 6 -38 10 -38 5 0 6 -16 3 -35 -2 -20 0 -33 4 -30 8 4 20 -49 27 -120 4 -42 14 -97 21 -115 6 -16 8 -26 18 -134 3 -38 10 -78 16 -88 7 -12 6 -18 -1 -18 -6 0 -9 -12 -7 -27 2 -16 0 -36 -5 -47 -7 -13 -7 -16 1 -12 7 4 11 -1 11 -13 0 -12 -6 -21 -12 -21 -8 0 -9 -3 -3 -8 14 -10 12 -56 -5 -86 -10 -19 -11 -32 -3 -49 8 -16 7 -25 -3 -35 -7 -7 -10 -20 -7 -29 4 -10 2 -14 -4 -10 -10 6 -25 -40 -28 -88 -1 -11 -7 -30 -13 -42 -7 -13 -9 -23 -5 -23 4 0 2 -5 -5 -12 -7 -7 -12 -20 -12 -30 0 -11 -7 -32 -15 -48 -8 -16 -16 -48 -17 -70 -1 -22 -5 -43 -9 -46 -4 -2 -6 -13 -4 -24 2 -12 0 -18 -6 -15 -8 6 -13 -8 -10 -28 1 -4 -4 -18 -11 -30 -7 -12 -11 -25 -10 -29 1 -4 -3 -31 -10 -60 -6 -29 -11 -59 -9 -65 1 -7 -4 -13 -11 -13 -8 0 -9 -3 -3 -8 14 -10 12 -55 -2 -65 -10 -6 -10 -12 -1 -27 10 -15 10 -22 0 -32 -13 -13 -17 -68 -4 -68 14 0 39 24 88 85 26 33 53 65 59 70 7 6 25 28 41 50 16 22 34 45 39 52 25 30 32 41 61 83 17 25 46 68 65 95 123 175 349 596 349 649 0 6 4 16 8 22 29 35 130 347 166 519 10 44 24 109 31 145 13 61 30 186 29 220 -2 41 -5 51 -15 45 -7 -5 -8 5 -4 29 5 26 4 36 -5 36 -8 0 -11 10 -7 29 4 17 2 31 -4 33 -6 2 -12 51 -15 117 -2 62 -8 119 -13 125 -5 6 -12 30 -16 53 -4 24 -12 41 -18 40 -7 -1 -15 24 -20 66 -7 51 -13 67 -23 63 -8 -3 -14 -2 -14 2 -1 4 -5 26 -9 49 -5 26 -4 46 2 52 7 7 6 19 -1 38 -13 32 -40 156 -49 223 -3 25 -9 47 -13 50 -7 4 -24 85 -25 115 0 6 -2 12 -6 15 -3 3 -15 43 -27 90 -63 248 -87 327 -103 350 -9 14 -19 39 -22 56 -3 17 -10 41 -16 52 -15 27 -14 32 4 32 12 0 14 7 9 28 -4 15 -11 33 -16 39 -6 7 -8 20 -4 29 3 8 1 25 -6 37 -7 12 -14 33 -16 46 -3 21 -1 23 12 12 14 -12 15 -10 5 18 -6 17 -12 31 -12 30 -1 0 -9 -7 -17 -15z"/>
 </g>
<g id="layer110" fill="#513623" stroke="none">
 <path d="M7793 8260 c-25 -10 -31 -29 -10 -31 65 -5 131 12 88 24 -12 3 -19 1 -15 -4 6 -10 -7 -12 -30 -3 -9 3 -13 10 -10 15 6 11 6 10 -23 -1z"/>
 <path d="M6706 8252 c-8 -13 67 -19 144 -11 l65 7 -75 0 c-41 1 -87 4 -101 7 -15 4 -29 3 -33 -3z"/>
 <path d="M3920 7990 c0 -7 1551 -11 4609 -12 3683 -2 4607 0 4604 10 -7 16 -9213 18 -9213 2z"/>
 <path d="M12564 7665 c0 -82 2 -115 3 -72 2 43 2 110 0 150 -1 40 -3 5 -3 -78z"/>
 <path d="M8932 7323 c-156 -2 -281 -7 -278 -11 2 -4 7 -65 10 -137 8 -161 13 -201 38 -345 11 -63 22 -133 25 -155 3 -22 10 -48 14 -57 6 -11 5 -18 -4 -21 -8 -4 -8 -8 -2 -14 6 -4 10 -12 10 -18 1 -5 7 -43 14 -83 7 -41 11 -84 8 -98 -2 -13 0 -24 5 -24 5 0 8 -15 7 -32 -1 -18 1 -51 4 -73 4 -22 10 -69 13 -105 12 -108 12 -115 14 -115 4 0 42 -145 47 -177 3 -21 9 -38 13 -38 5 0 6 -8 3 -19 -3 -10 0 -22 7 -26 8 -5 8 -10 -1 -21 -8 -10 -8 -14 0 -14 6 0 11 -9 11 -20 0 -35 17 -21 39 33 14 32 24 81 26 127 17 303 21 343 46 450 45 193 85 288 172 410 36 51 38 59 32 103 -5 44 -3 50 23 75 62 59 126 102 161 108 20 4 50 13 66 22 39 19 125 98 149 137 46 73 99 134 119 138 23 4 -314 4 -791 0z"/>
 <path d="M7476 7258 c68 -134 113 -299 123 -453 5 -71 10 -94 16 -80 5 11 28 48 51 83 24 34 41 62 38 62 -5 0 26 60 36 70 9 8 57 243 67 328 l5 42 -181 0 -181 0 26 -52z"/>
 <path d="M8070 6563 c-109 -18 -229 -88 -300 -175 -76 -94 -201 -353 -183 -381 3 -6 1 -7 -5 -3 -6 4 -11 -1 -10 -11 0 -10 -17 -65 -38 -123 -29 -82 -38 -125 -42 -195 -2 -49 -2 -88 1 -85 3 3 25 32 49 65 36 48 50 60 74 61 16 1 46 6 66 12 36 9 38 9 59 -24 27 -45 34 -102 20 -161 -19 -72 -28 -78 -63 -43 -53 54 -103 52 -167 -6 -25 -22 -42 -31 -46 -24 -5 8 -11 8 -19 1 -7 -6 -15 -8 -18 -5 -6 6 -21 -87 -16 -96 5 -8 -49 -95 -84 -134 -30 -34 -37 -37 -80 -35 -37 2 -55 -3 -90 -27 -24 -16 -46 -33 -50 -38 -3 -5 -19 -15 -35 -22 -15 -7 -22 -13 -15 -13 7 -1 21 3 31 9 50 26 241 36 241 12 0 -4 -12 -15 -27 -24 -16 -10 -62 -47 -103 -83 -41 -37 -146 -113 -232 -171 -86 -57 -164 -112 -174 -121 -17 -17 -17 -17 -11 7 27 93 37 137 37 155 0 15 27 44 80 90 44 38 80 70 80 72 0 3 -15 -4 -32 -15 -18 -11 -48 -23 -67 -27 -93 -20 -108 -34 -175 -166 -80 -157 -110 -213 -117 -219 -3 -3 -17 -28 -31 -55 -28 -56 -26 -61 32 -85 44 -18 53 -30 32 -47 -22 -16 -8 -17 21 -1 12 7 28 13 34 14 21 4 106 37 143 57 l35 18 -42 -5 c-32 -3 -43 0 -43 9 0 8 -8 16 -17 18 -17 4 -17 5 0 6 10 0 15 6 12 11 -3 6 -1 10 4 10 6 0 11 5 11 11 0 5 -5 7 -11 4 -6 -4 6 16 27 45 20 28 44 54 53 57 9 4 63 33 121 67 106 61 185 130 320 283 l55 61 42 -7 c36 -7 45 -5 63 14 11 12 20 25 20 31 0 5 -18 25 -41 45 -37 31 -40 38 -30 57 10 20 19 21 94 20 99 -2 142 17 200 86 47 56 78 78 124 85 l36 6 42 130 c23 72 50 145 59 164 l18 34 -64 59 c-34 33 -62 64 -61 68 1 5 -4 30 -12 56 -8 27 -13 50 -11 52 2 2 32 -11 66 -28 34 -17 68 -29 76 -26 7 3 28 37 47 76 l34 71 -33 14 c-84 35 -77 160 11 215 84 52 175 41 239 -30 31 -35 36 -47 36 -90 0 -41 -5 -56 -25 -75 -13 -14 -33 -25 -43 -25 -17 0 -18 -5 -11 -49 8 -54 30 -131 37 -131 15 0 172 90 200 114 28 24 35 27 43 15 10 -15 4 -57 -13 -102 -6 -17 -41 -49 -89 -83 -43 -30 -81 -58 -83 -63 -5 -7 -2 -20 34 -176 35 -155 47 -190 61 -191 8 -1 24 -2 36 -3 13 -1 53 -32 100 -80 82 -83 117 -101 196 -101 32 0 37 -3 33 -17 -2 -10 -8 -33 -11 -52 -4 -19 -17 -43 -29 -52 l-21 -17 30 -58 c23 -44 44 -68 90 -99 55 -39 105 -94 105 -118 0 -5 -12 -6 -27 -2 -41 10 -103 18 -143 19 -57 0 -251 -111 -332 -192 -38 -37 -68 -69 -68 -73 0 -4 9 -9 20 -12 12 -3 20 -14 20 -26 0 -29 32 -79 48 -74 6 3 10 9 6 14 -3 5 -1 9 4 9 5 0 14 11 20 24 12 28 92 95 118 100 11 3 31 9 46 15 33 12 106 16 133 6 11 -4 16 -3 10 2 -9 7 -12 51 -7 89 3 18 74 51 125 59 43 6 54 3 90 -22 23 -15 48 -34 56 -41 7 -7 20 -11 27 -8 8 3 13 1 11 -4 -1 -6 13 -20 31 -31 17 -12 32 -18 32 -15 0 3 -15 20 -32 38 -18 18 -34 42 -35 53 -1 11 0 15 3 9 2 -6 15 -9 28 -7 13 3 30 -2 39 -11 8 -9 24 -16 34 -16 11 0 23 -4 28 -9 6 -5 26 -18 45 -29 47 -27 201 -119 223 -135 10 -6 23 -11 28 -9 5 1 9 -2 9 -6 0 -9 67 -34 136 -52 47 -11 80 -5 65 14 -5 6 -27 45 -49 86 -22 41 -52 98 -67 125 -15 28 -50 94 -77 148 -27 53 -54 97 -60 97 -19 0 -185 78 -193 91 -4 5 -11 9 -17 9 -16 0 25 -42 105 -107 55 -46 67 -60 67 -85 0 -35 45 -173 67 -208 l16 -25 -29 19 c-16 10 -38 26 -49 36 -11 9 -60 43 -110 74 -109 70 -144 102 -246 228 -44 53 -89 104 -100 112 -21 14 -20 15 27 19 27 2 16 3 -24 2 -40 -1 -75 -5 -79 -9 -4 -3 3 -20 15 -36 24 -33 27 -40 12 -40 -5 0 -10 6 -10 14 0 7 -13 19 -30 26 -24 10 -30 19 -30 43 0 37 21 110 34 119 6 4 4 13 -6 25 -38 43 -49 94 -49 226 0 89 4 134 13 146 11 14 11 14 -2 4 -14 -10 -17 -3 -28 54 -7 37 -36 121 -63 187 -28 67 -60 144 -71 171 -34 83 -108 227 -149 286 -108 160 -306 244 -499 212z m234 -42 c54 -13 62 -23 45 -62 -7 -18 -13 -44 -13 -58 -1 -18 -9 -30 -28 -39 -25 -11 -36 -10 -88 9 -65 23 -117 22 -172 -7 -37 -19 -83 -6 -121 34 -43 46 -17 105 55 122 46 11 275 11 322 1z m-377 -192 c15 -6 42 -11 60 -11 l32 0 -29 -37 c-16 -20 -33 -51 -36 -70 -7 -31 -9 -33 -42 -28 -72 12 -116 64 -94 112 18 40 61 53 109 34z m463 -12 c0 -7 11 -29 25 -49 33 -48 32 -56 -10 -74 -47 -19 -65 -18 -65 7 0 26 -16 57 -49 93 l-26 29 25 -5 c14 -3 36 -2 50 2 38 12 50 11 50 -3z m286 -564 c41 -41 111 -147 138 -210 15 -35 16 -45 6 -58 -18 -21 -28 -19 -66 15 -60 52 -109 52 -160 1 -36 -37 -38 -37 -52 -6 -19 41 -25 126 -13 171 14 54 66 124 91 124 11 0 36 -16 56 -37z m-1005 -283 c10 -6 19 -18 19 -27 0 -22 -46 -117 -63 -131 -14 -12 -51 -17 -101 -14 -28 2 -28 3 -12 21 9 10 21 44 26 76 5 31 15 63 21 71 13 16 82 19 110 4z m1069 -22 c11 -18 20 -46 20 -63 0 -16 6 -42 14 -56 13 -26 13 -27 -14 -32 -15 -4 -43 -2 -62 3 -28 8 -39 20 -67 77 l-33 67 22 18 c13 10 39 18 61 18 34 0 42 -5 59 -32z"/>
 <path d="M7512 4861 c-6 -3 -40 -6 -76 -5 -37 1 -69 -3 -72 -7 -3 -5 -10 -7 -15 -4 -5 4 -9 2 -9 -4 0 -5 -6 -16 -14 -24 -13 -12 -6 -16 51 -25 81 -13 126 -53 121 -105 -2 -18 -7 -35 -11 -38 -4 -3 46 -5 111 -5 101 1 123 -2 139 -16 11 -10 25 -18 32 -18 7 0 30 -15 52 -32 36 -29 42 -31 52 -17 7 9 31 22 53 30 l41 14 -54 44 c-30 25 -82 54 -117 66 -35 12 -97 47 -137 76 -76 56 -129 81 -147 70z"/>
 <path d="M9746 4057 c2 -7 14 -20 26 -28 11 -7 31 -23 44 -34 13 -11 42 -36 65 -55 50 -41 157 -183 166 -220 3 -14 13 -35 20 -47 8 -12 12 -27 8 -33 -11 -17 24 -23 40 -6 9 9 22 16 29 16 41 0 167 -136 239 -260 28 -48 135 -263 158 -317 8 -18 17 -33 21 -33 12 0 9 154 -3 207 -22 93 -66 200 -109 268 -11 17 -23 37 -27 45 -3 8 -9 17 -12 20 -3 3 -24 28 -46 55 -49 61 -131 141 -167 163 -16 9 -28 20 -28 24 0 4 -6 8 -14 8 -8 0 -16 3 -18 8 -4 10 -161 114 -208 137 -19 10 -53 29 -75 44 -22 14 -46 26 -54 27 -7 2 -18 7 -24 13 -15 15 -37 14 -31 -2z"/>
 </g>
<g id="layer111" fill="#30450d" stroke="none">
 <path d="M4613 6530 c3 -11 1 -22 -3 -25 -5 -3 -11 -38 -15 -78 -7 -77 11 -163 68 -322 14 -38 28 -99 32 -135 9 -89 31 -180 63 -262 23 -60 29 -68 52 -68 19 0 36 12 61 42 19 23 43 52 55 66 l21 25 29 -38 c41 -54 83 -93 124 -116 19 -11 49 -28 65 -39 32 -21 72 -40 84 -40 26 0 105 -116 175 -260 65 -132 102 -153 217 -124 74 19 122 41 201 95 99 67 178 52 288 -55 36 -35 90 -79 120 -98 30 -19 66 -47 80 -61 32 -34 45 -34 117 2 32 16 92 39 133 52 65 21 75 28 78 49 5 55 25 137 41 170 10 19 25 70 35 113 21 91 74 197 107 214 13 7 42 13 65 13 44 0 86 32 114 87 15 29 79 93 93 93 4 0 31 17 60 39 80 60 124 78 222 90 156 21 172 27 190 75 13 35 16 76 13 223 -2 100 -7 185 -11 190 -10 10 -259 19 -847 32 -250 6 -610 15 -800 21 -768 22 -1218 35 -1267 35 -28 0 -49 3 -46 8 2 4 -1 7 -8 7 -6 0 -9 -8 -6 -20z"/>
 <path d="M9191 6382 c-62 -148 -110 -269 -116 -293 -6 -23 -2 -29 34 -47 47 -25 60 -37 140 -133 63 -75 114 -171 145 -274 22 -71 57 -155 65 -155 3 0 31 -38 61 -84 50 -76 83 -108 149 -143 13 -8 26 -11 28 -9 3 3 13 35 23 73 10 37 22 79 28 93 9 25 23 68 57 185 10 33 24 74 31 90 7 17 27 66 45 110 57 145 151 311 181 323 4 2 8 8 8 13 0 5 15 23 34 40 31 27 89 128 98 169 2 8 10 20 18 27 8 7 11 13 5 13 -73 4 -521 20 -690 25 -235 6 -307 12 -315 25 -3 5 -16 -17 -29 -48z"/>
 <path d="M10373 6373 c0 -7 4 -13 9 -13 5 0 7 -4 4 -8 -3 -5 4 -19 15 -31 19 -20 38 -53 97 -161 20 -36 47 -115 57 -162 3 -14 16 -40 30 -56 37 -45 93 -54 257 -44 l137 8 38 40 c21 22 43 48 48 58 7 12 29 20 77 26 37 4 88 18 112 30 48 23 116 86 116 107 0 7 3 13 8 13 4 0 18 16 31 35 37 55 67 84 95 91 15 3 30 12 34 19 4 6 14 15 22 18 8 3 -54 6 -138 6 -84 1 -151 4 -149 9 3 4 -104 8 -237 10 -132 1 -336 6 -452 10 -166 5 -211 4 -211 -5z"/>
 </g>
<g id="layer112" fill="#26260e" stroke="none">
 <path d="M5927 8840 c-98 -3 -168 -9 -170 -15 -1 -5 10 -11 25 -13 14 -2 29 -9 31 -16 10 -25 17 -372 10 -450 l-8 -80 -35 -9 c-19 -5 -37 -11 -40 -13 -10 -11 27 -24 67 -24 33 0 43 4 48 20 3 11 15 20 26 20 18 0 19 8 20 128 0 70 0 186 -1 258 -1 127 0 133 22 148 22 16 129 24 114 9 -4 -5 12 -13 35 -18 37 -9 45 -16 53 -43 5 -18 12 -32 16 -32 9 0 -3 60 -15 79 -4 7 1 21 11 32 15 16 15 19 1 19 -8 0 -21 1 -29 3 -7 1 -88 0 -181 -3z"/>
 <path d="M7770 8840 c-220 -4 -248 -7 -277 -25 -18 -10 -68 -66 -110 -122 -75 -100 -79 -104 -113 -101 -20 1 -40 -1 -46 -5 -20 -12 -24 5 -24 103 0 107 2 111 66 134 38 14 35 15 -78 15 -99 1 -118 -1 -118 -14 0 -8 9 -15 20 -15 36 0 40 -30 40 -289 l0 -250 -40 -12 c-39 -12 -53 -28 -27 -30 38 -5 93 5 100 17 4 8 15 14 22 14 12 0 15 24 15 139 0 77 3 146 6 155 8 21 67 21 88 1 8 -8 21 -15 28 -15 21 -1 46 -24 58 -54 13 -34 13 -107 1 -139 -15 -38 -69 -71 -113 -70 -42 2 -50 -13 -15 -27 18 -7 13 -9 -28 -11 l-50 -2 60 -6 c33 -3 62 -3 65 0 3 4 29 17 58 29 90 39 123 104 93 183 -8 21 -6 26 12 31 21 5 20 6 -11 39 -19 19 -42 33 -55 33 -45 -2 -31 36 52 137 103 123 149 149 237 133 l42 -7 6 -192 c3 -106 3 -228 -1 -272 -8 -79 -8 -79 -41 -89 -51 -14 -32 -31 39 -33 35 -1 58 0 52 3 -20 8 -15 24 8 32 21 8 21 12 20 260 -1 298 -2 293 97 291 31 0 50 -3 42 -6 -9 -4 3 -11 30 -17 37 -9 48 -18 62 -46 15 -30 18 -31 18 -12 0 13 -7 36 -15 52 -13 25 -13 29 0 34 22 8 18 23 -7 27 -13 2 -133 2 -268 -1z"/>
 <path d="M8215 8841 c-30 -6 -30 -7 -33 -80 -2 -42 2 -79 8 -85 7 -7 10 -1 10 21 0 40 19 95 38 111 19 14 106 17 97 2 -3 -5 3 -10 15 -10 32 0 80 -53 80 -87 0 -39 -24 -71 -102 -137 -106 -91 -122 -117 -123 -201 0 -83 16 -112 83 -144 43 -21 102 -28 102 -12 0 5 15 12 34 15 38 7 62 29 71 68 4 16 11 26 15 23 5 -3 6 4 3 15 -8 31 -28 24 -42 -16 -22 -60 -105 -81 -153 -38 -18 17 -34 3 -22 -18 4 -7 -2 -5 -14 6 -55 48 -33 130 53 196 71 54 133 123 141 154 3 14 4 50 2 81 -2 39 1 55 10 55 40 0 -22 65 -77 80 -39 11 -148 12 -196 1z"/>
 <path d="M9550 8843 c-103 -4 -117 -8 -100 -28 9 -10 9 -32 1 -87 -5 -40 -15 -112 -22 -160 -7 -61 -15 -88 -24 -88 -8 0 -15 -7 -17 -16 -2 -9 -29 38 -62 104 -56 116 -86 154 -86 112 0 -11 37 -97 83 -192 46 -95 94 -197 107 -225 14 -29 29 -53 33 -53 5 0 6 21 2 48 -8 65 59 519 82 544 24 26 46 30 85 14 43 -18 50 -27 78 -96 12 -30 27 -68 34 -85 8 -16 21 -50 31 -75 10 -25 23 -58 30 -75 7 -16 25 -61 40 -99 15 -38 31 -77 35 -85 4 -9 16 -34 26 -56 l18 -40 7 50 c7 47 175 475 205 522 18 28 44 42 97 53 33 6 19 8 -70 9 -72 1 -114 -3 -119 -10 -3 -6 -1 -15 6 -19 9 -6 5 -26 -18 -86 l-30 -79 -96 -1 c-52 -1 -99 -5 -105 -9 -6 -3 -15 4 -20 17 -5 13 -19 47 -30 77 -12 30 -20 60 -17 67 3 8 20 20 38 28 33 14 32 14 -39 15 -39 1 -77 2 -85 4 -7 1 -51 1 -98 0z m403 -250 c22 -4 27 -9 22 -21 -4 -10 -20 -53 -36 -97 -15 -44 -28 -74 -29 -66 0 11 -3 11 -15 1 -12 -10 -16 -9 -22 6 -3 11 -19 51 -35 89 -31 79 -33 91 -15 98 12 6 76 1 130 -10z"/>
 <path d="M11830 8841 c-23 -6 -25 -12 -28 -80 -4 -92 13 -116 22 -32 5 46 12 64 29 76 24 17 97 21 97 5 0 -5 8 -10 19 -10 10 0 30 -9 45 -21 22 -17 26 -28 26 -67 -1 -54 -6 -61 -107 -150 -94 -83 -113 -114 -113 -187 0 -73 21 -110 82 -141 46 -23 108 -32 108 -16 0 5 17 13 38 18 30 7 41 17 59 54 25 52 28 70 11 70 -7 0 -21 -18 -31 -40 -14 -30 -26 -42 -54 -49 -42 -12 -93 -4 -100 15 -9 23 -26 16 -20 -8 6 -21 4 -21 -19 5 -50 58 -28 118 75 200 39 32 83 74 98 94 25 32 28 45 28 110 0 52 4 73 13 73 37 0 -25 65 -77 80 -40 11 -162 12 -201 1z"/>
 <path d="M5020 8825 c0 -9 9 -15 24 -15 13 0 26 -6 29 -13 10 -26 17 -372 10 -452 -8 -79 -8 -79 -41 -89 -30 -8 -41 -32 -14 -30 7 1 30 2 52 3 28 1 40 5 40 16 0 8 9 15 20 15 19 0 20 7 20 251 0 144 4 258 10 269 19 35 126 54 149 26 6 -7 34 -16 62 -20 37 -5 59 -15 88 -42 57 -51 74 -94 74 -189 0 -98 -23 -156 -85 -209 -57 -49 -169 -80 -234 -66 -46 11 -54 -7 -12 -25 l33 -14 -60 -2 c-49 -2 -53 -3 -20 -7 52 -5 195 16 262 39 80 27 135 70 168 131 26 46 29 63 29 128 -1 46 -7 90 -17 114 -21 47 -21 46 -2 46 46 0 -29 81 -111 120 l-64 30 -205 0 c-176 0 -205 -2 -205 -15z"/>
 <path d="M6610 8825 c0 -9 9 -15 24 -15 16 0 26 -7 30 -22 3 -13 9 -133 13 -267 l6 -244 -79 6 c-93 6 -111 12 -119 38 -4 10 -13 19 -22 19 -13 0 -14 -9 -8 -57 4 -32 9 -61 12 -65 9 -16 33 -7 33 12 0 18 6 20 83 19 56 -1 74 -4 57 -9 -17 -5 2 -8 55 -7 44 0 63 2 42 4 -37 4 -43 23 -6 23 18 0 19 9 19 263 0 243 1 265 18 280 10 10 29 17 43 17 13 0 31 5 39 10 10 7 -26 10 -112 10 -107 0 -128 -2 -128 -15z"/>
 <path d="M8830 8825 c0 -9 9 -15 23 -15 31 0 42 -25 56 -130 21 -153 31 -214 46 -305 8 -49 17 -107 20 -127 8 -53 22 -47 30 13 9 65 187 430 216 443 13 6 18 15 13 25 -16 39 -16 55 -2 65 14 10 14 14 2 30 -7 10 -19 16 -27 13 -8 -3 -54 -87 -103 -186 -77 -155 -106 -202 -120 -189 -3 3 -22 120 -42 258 -11 73 -5 86 51 107 28 10 21 12 -65 12 -81 1 -98 -2 -98 -14z"/>
 <path d="M10280 8825 c0 -9 9 -15 24 -15 13 0 27 -8 30 -17 11 -28 18 -414 9 -473 -8 -50 -11 -55 -41 -64 -30 -8 -41 -32 -14 -30 7 1 30 2 52 3 27 1 40 6 40 15 0 8 7 16 16 18 14 3 16 21 15 135 -2 153 4 173 54 173 18 0 37 -5 40 -10 4 -6 22 -17 40 -24 42 -18 65 -61 65 -122 0 -84 -57 -141 -137 -136 -38 3 -44 -13 -10 -25 19 -6 15 -9 -23 -14 -39 -6 -36 -7 20 -5 77 2 170 42 197 83 18 28 23 81 10 126 -6 21 -4 27 8 27 22 0 18 15 -13 49 -19 22 -33 29 -48 25 -28 -7 -39 22 -20 50 8 12 44 57 81 101 68 81 120 121 165 126 36 4 88 -10 93 -25 10 -25 17 -372 10 -451 -8 -79 -8 -79 -40 -89 -60 -17 -33 -38 36 -29 25 4 41 11 41 19 0 8 9 14 20 14 19 0 20 7 20 263 0 250 1 265 20 282 16 15 30 17 77 11 69 -8 83 -19 112 -93 12 -32 28 -71 35 -88 8 -16 21 -50 31 -75 10 -25 23 -58 30 -75 7 -16 25 -61 40 -99 15 -38 31 -77 35 -85 4 -9 16 -34 26 -56 l18 -40 7 50 c11 74 193 515 224 542 32 28 94 41 106 22 7 -11 9 -10 9 4 0 15 -12 17 -108 17 -60 0 -111 -3 -115 -6 -3 -3 -1 -14 4 -23 7 -11 2 -37 -20 -91 l-30 -75 -95 -1 c-52 -1 -99 -5 -105 -9 -6 -3 -15 4 -20 17 -5 13 -19 47 -30 77 -12 30 -20 60 -17 67 3 8 20 20 38 28 30 13 4 14 -256 15 -344 1 -318 10 -438 -146 -78 -101 -81 -104 -117 -102 -20 2 -42 -1 -49 -5 -18 -11 -25 35 -20 126 5 88 8 91 78 115 31 10 20 12 -87 12 -103 1 -123 -1 -123 -14z m1193 -232 c22 -4 27 -9 22 -21 -4 -10 -20 -53 -36 -97 -15 -44 -28 -71 -29 -61 0 20 0 20 -14 0 -14 -19 -15 -19 -22 1 -4 11 -20 52 -36 90 -31 79 -33 91 -15 98 12 6 76 1 130 -10z"/>
 <path d="M6090 8593 c0 -38 -18 -48 -90 -53 -39 -3 -71 -9 -71 -15 0 -5 21 -15 48 -21 45 -10 46 -11 18 -16 -19 -3 -7 -6 30 -7 l61 -1 17 58 c21 70 21 72 2 72 -8 0 -15 -8 -15 -17z"/>
 <path d="M8010 8591 c0 -37 -27 -51 -100 -51 -38 0 -71 -4 -74 -9 -6 -10 44 -30 78 -32 18 -1 18 -2 -4 -9 -19 -5 -8 -8 42 -11 52 -3 64 -1 56 8 -7 9 -4 26 12 57 20 43 20 66 -1 66 -5 0 -9 -9 -9 -19z"/>
 <path d="M6104 8324 c-8 -33 -39 -44 -121 -44 -57 0 -64 -2 -53 -15 7 -8 19 -15 27 -15 8 0 11 -4 8 -10 -3 -5 -3 -10 2 -10 4 0 36 -2 71 -4 49 -3 62 -1 62 10 0 8 9 33 20 55 20 38 20 59 0 59 -5 0 -13 -12 -16 -26z"/>
 <path d="M6970 8330 c0 -28 -33 -41 -121 -47 -111 -8 -104 -31 9 -35 l57 -1 -60 -7 c-51 -6 -54 -7 -19 -8 23 -1 62 -5 88 -8 37 -6 45 -4 41 7 -3 8 4 32 15 54 24 47 25 65 5 65 -8 0 -15 -9 -15 -20z"/>
 <path d="M8020 8327 c0 -32 -36 -47 -115 -47 -65 0 -87 -14 -40 -26 14 -3 22 -10 19 -15 -3 -5 6 -9 19 -9 13 0 46 -3 72 -7 38 -5 47 -3 43 8 -3 8 3 32 13 54 23 49 24 65 4 65 -9 0 -15 -9 -15 -23z"/>
 <path d="M3880 8010 l0 -40 4628 2 4627 3 -4607 2 c-3061 2 -4608 6 -4608 13 0 7 1546 10 4608 10 4491 1 4608 1 4630 19 12 11 22 22 22 25 0 3 -2092 6 -4650 6 l-4650 0 0 -40z"/>
 <path d="M4904 7883 c-112 -4 -112 -4 -148 -38 -20 -18 -36 -36 -36 -40 0 -3 -5 -11 -10 -18 -6 -7 -19 -24 -31 -39 -12 -17 -30 -28 -45 -28 -28 0 -32 -15 -6 -24 60 -20 83 -52 78 -106 -4 -47 -32 -80 -67 -80 -27 0 -23 -19 6 -26 16 -4 34 1 55 16 35 25 50 56 50 101 0 16 5 29 11 29 7 0 6 8 -4 23 -8 12 -21 21 -27 19 -7 -1 -18 2 -26 9 -17 14 -7 36 53 107 55 65 92 85 138 76 44 -8 47 -22 43 -214 l-3 -145 -27 -3 c-47 -6 -31 -22 21 -22 l49 0 2 177 c0 98 5 182 9 186 14 14 91 21 91 9 0 -6 10 -14 23 -18 12 -4 26 -12 30 -18 5 -6 6 1 3 17 -5 20 -3 27 9 27 8 0 15 5 15 10 0 6 -24 10 -52 10 -29 0 -62 2 -73 3 -11 2 -70 2 -131 0z"/>
 <path d="M7144 7870 c-25 -11 -56 -38 -79 -67 -37 -48 -37 -48 -33 -134 2 -65 7 -90 21 -103 9 -10 17 -22 17 -27 0 -5 19 -21 43 -36 35 -22 53 -27 107 -27 78 0 114 17 164 75 41 49 54 108 39 181 -8 39 -7 48 5 50 24 5 -34 66 -84 88 -55 25 -144 25 -200 0z m135 -14 c7 -8 23 -17 36 -20 60 -15 87 -164 45 -245 -30 -60 -63 -81 -126 -81 -44 0 -58 5 -79 25 -28 29 -35 14 -8 -19 9 -12 0 -5 -20 16 -95 97 -65 263 58 319 48 22 79 24 94 5z"/>
 <path d="M8815 7869 c-91 -37 -134 -101 -135 -197 0 -65 26 -119 77 -160 45 -35 95 -45 182 -33 54 6 69 13 93 40 30 34 38 81 13 81 -9 0 -15 -9 -15 -24 0 -43 -43 -66 -120 -66 -63 0 -70 2 -93 30 -16 18 -28 26 -32 19 -4 -6 3 -23 16 -37 21 -24 20 -23 -10 3 -42 37 -61 81 -61 140 0 81 35 142 102 176 37 19 118 26 118 11 0 -4 15 -12 32 -17 19 -6 38 -21 45 -35 10 -19 13 -21 13 -7 0 10 -5 27 -10 38 -11 19 -4 24 25 20 6 -1 -1 8 -14 19 -33 28 -155 27 -226 -1z"/>
 <path d="M9224 7869 c-103 -47 -144 -185 -88 -296 34 -70 78 -96 165 -97 56 -1 73 3 115 29 73 45 97 97 91 197 -4 53 -1 78 6 81 18 7 -42 67 -88 88 -53 24 -146 24 -201 -2z m159 -24 c35 -20 49 -36 66 -75 11 -27 21 -62 21 -79 0 -45 -29 -111 -63 -148 -28 -29 -37 -33 -85 -33 -39 0 -61 6 -79 20 -32 25 -42 18 -18 -12 10 -13 2 -7 -17 13 -91 92 -60 267 56 320 54 24 65 24 119 -6z"/>
 <path d="M10247 7864 c-21 -14 -43 -37 -49 -52 -7 -15 -14 -90 -18 -167 -5 -136 -6 -140 -27 -143 -41 -6 -24 -22 22 -22 l45 0 0 135 c0 164 13 206 71 235 21 11 43 20 48 20 17 0 101 -61 111 -81 6 -11 9 -74 8 -151 -3 -129 -4 -133 -25 -136 -39 -6 -25 -22 18 -22 l41 0 -4 182 -3 182 -40 23 c-57 32 -146 31 -198 -3z"/>
 <path d="M10841 7750 c-78 -77 -146 -140 -152 -140 -6 0 -9 45 -7 122 3 119 4 123 28 135 23 11 18 13 -42 13 -64 0 -95 -15 -45 -22 22 -3 22 -4 25 -195 1 -106 6 -193 11 -193 5 0 14 15 21 34 10 33 246 278 273 284 7 1 21 22 31 45 11 23 22 45 24 50 2 4 -3 7 -11 7 -8 0 -79 -63 -156 -140z"/>
 <path d="M4140 7870 c0 -5 9 -10 20 -10 19 0 20 -7 20 -180 l0 -180 -25 0 c-14 0 -25 -4 -25 -10 0 -5 20 -10 44 -10 56 0 56 1 56 201 0 164 3 175 50 192 8 3 -20 6 -62 6 -46 1 -78 -3 -78 -9z"/>
 <path d="M4490 7870 c0 -5 9 -10 20 -10 19 0 20 -7 20 -180 0 -172 -1 -180 -19 -180 -11 0 -23 -4 -26 -10 -4 -6 11 -10 38 -10 57 0 57 0 57 202 l0 157 26 20 27 21 -72 0 c-41 0 -71 -4 -71 -10z"/>
 <path d="M5230 7870 c0 -5 7 -10 15 -10 22 0 26 -31 23 -200 -3 -152 -3 -155 -25 -158 -41 -6 -24 -22 22 -22 l45 0 0 179 0 179 33 21 32 21 -72 0 c-42 0 -73 -4 -73 -10z"/>
 <path d="M5470 7871 c0 -5 9 -11 21 -13 11 -2 27 -14 34 -28 19 -35 68 -149 100 -230 9 -25 23 -57 31 -72 8 -14 14 -33 14 -42 0 -9 5 -16 10 -16 6 0 10 16 10 35 0 20 11 57 24 83 13 26 31 70 40 97 34 101 69 159 106 177 l35 18 -62 0 c-60 0 -63 -1 -63 -25 0 -14 -8 -43 -17 -65 -17 -39 -19 -40 -68 -40 -75 0 -91 8 -110 51 -17 37 -17 40 0 59 18 20 17 20 -43 20 -34 0 -62 -4 -62 -9z m210 -152 c36 -11 37 -12 27 -43 -18 -56 -30 -77 -37 -65 -4 6 -11 10 -16 9 -11 -1 -44 91 -38 102 7 11 20 10 64 -3z"/>
 <path d="M5915 7870 c3 -5 15 -10 26 -10 18 0 19 -8 19 -180 0 -172 -1 -180 -19 -180 -11 0 -23 -4 -26 -10 -4 -6 12 -10 39 -10 41 0 46 3 47 23 0 12 1 90 1 173 0 83 3 156 7 161 3 5 17 17 31 26 24 17 23 17 -53 17 -50 0 -76 -4 -72 -10z"/>
 <path d="M6186 7846 c-20 -19 -36 -37 -36 -41 0 -3 -5 -11 -10 -18 -6 -7 -19 -24 -31 -39 -12 -17 -30 -28 -45 -28 -28 0 -32 -15 -6 -24 59 -20 83 -52 78 -105 -4 -50 -21 -70 -67 -80 l-34 -8 26 -12 c52 -25 119 36 119 108 0 16 5 31 10 33 6 2 4 12 -5 25 -9 12 -21 20 -29 17 -7 -3 -18 1 -24 9 -15 17 30 88 88 141 69 62 56 81 206 -286 15 -38 31 -68 36 -68 4 0 8 19 8 43 0 23 6 51 13 62 8 11 24 49 37 85 51 140 76 185 111 203 l34 17 -63 0 c-58 0 -63 -2 -57 -19 3 -11 2 -28 -3 -38 -6 -10 -15 -30 -21 -45 -9 -25 -16 -28 -55 -28 -82 0 -99 8 -119 53 -17 41 -17 42 5 59 23 17 21 18 -53 18 -73 0 -78 -1 -113 -34z m279 -129 l31 -12 -23 -55 c-12 -30 -23 -50 -23 -43 0 7 -6 10 -12 8 -14 -5 -48 66 -48 98 0 20 29 22 75 4z"/>
 <path d="M6740 7871 c0 -5 9 -11 20 -14 19 -5 20 -14 20 -176 l0 -171 -45 0 c-36 0 -52 6 -72 26 -14 14 -27 23 -30 20 -3 -2 -2 -23 2 -45 5 -31 11 -41 26 -41 10 0 19 5 19 11 0 8 21 10 70 5 l70 -7 0 173 c0 95 4 178 8 184 4 5 18 18 32 27 24 17 23 17 -48 17 -39 0 -72 -4 -72 -9z"/>
 <path d="M7520 7871 c0 -5 10 -11 23 -13 22 -3 22 -4 22 -178 0 -167 -1 -175 -20 -178 -45 -8 -37 -22 13 -22 l52 0 0 180 0 180 33 20 32 20 -77 0 c-43 0 -78 -4 -78 -9z"/>
 <path d="M7810 7865 c-14 -7 -34 -27 -45 -44 -11 -17 -23 -31 -27 -31 -5 0 -8 -6 -8 -12 -1 -24 -38 -58 -64 -58 -35 0 -33 -12 6 -29 49 -22 68 -47 68 -90 0 -48 -31 -91 -67 -91 -21 0 -24 -2 -13 -15 20 -24 49 -18 86 19 26 26 34 42 34 69 0 20 4 38 9 41 12 8 2 46 -13 47 -6 1 -18 2 -26 3 -28 2 -15 43 32 104 56 72 96 96 144 88 43 -9 46 -25 42 -216 -3 -142 -4 -145 -25 -148 -41 -6 -24 -22 22 -22 l45 0 0 180 c0 179 0 180 24 195 40 26 97 5 117 -43 26 -60 85 -202 115 -274 15 -38 31 -68 36 -68 4 0 8 17 8 37 0 20 16 76 36 123 90 216 88 212 124 231 l35 19 -63 0 c-58 0 -63 -2 -57 -19 3 -11 1 -28 -5 -38 -5 -10 -14 -30 -20 -45 -8 -25 -15 -28 -54 -28 -83 0 -102 8 -119 51 -15 38 -15 40 6 59 21 20 20 20 -169 20 -142 -1 -195 -4 -214 -15z m487 -147 c18 -7 33 -14 33 -18 0 -12 -39 -104 -40 -93 0 7 -6 10 -13 7 -9 -3 -20 10 -30 38 -30 78 -20 91 50 66z"/>
 <path d="M9580 7870 c0 -5 7 -10 15 -10 20 0 35 -32 35 -74 0 -20 7 -68 15 -108 8 -40 18 -102 22 -138 4 -36 12 -65 18 -65 5 0 13 21 17 46 4 25 34 94 65 153 90 168 93 174 87 191 -13 34 -35 10 -90 -100 -31 -63 -63 -115 -70 -115 -13 0 -16 11 -35 124 -11 67 -11 70 11 88 22 18 22 18 -34 18 -31 0 -56 -4 -56 -10z"/>
 <path d="M9994 7865 c3 -8 0 -52 -5 -97 -16 -121 -19 -134 -28 -119 -5 7 -12 11 -16 9 -5 -1 -18 16 -30 40 -24 47 -51 79 -60 70 -3 -3 14 -45 39 -94 24 -49 57 -116 72 -149 l29 -60 2 50 c3 47 28 238 39 298 4 18 18 36 37 48 l32 19 -59 0 c-47 0 -57 -3 -52 -15z"/>
 <path d="M11120 7870 c0 -5 6 -10 14 -10 21 0 26 -33 26 -198 0 -146 -1 -154 -20 -159 -34 -9 -22 -23 20 -23 l40 0 0 179 0 179 33 21 32 21 -72 0 c-42 0 -73 -4 -73 -10z"/>
 <path d="M11430 7871 c0 -5 9 -11 20 -14 19 -5 20 -14 20 -176 l0 -171 -45 0 c-36 0 -52 6 -72 26 -14 14 -27 23 -30 20 -3 -2 -2 -23 2 -45 5 -31 11 -41 26 -41 10 0 19 5 19 11 0 8 21 10 70 5 l70 -7 0 179 0 180 33 21 32 21 -72 0 c-40 0 -73 -4 -73 -9z"/>
 <path d="M11630 7871 c0 -5 10 -11 23 -15 14 -3 29 -20 39 -43 9 -21 35 -83 58 -138 23 -55 48 -113 55 -130 7 -16 16 -40 20 -52 11 -38 25 -26 25 20 0 24 4 47 9 53 5 5 33 69 62 142 47 121 55 135 88 152 l36 19 -63 1 c-58 0 -63 -2 -57 -19 3 -11 2 -28 -3 -38 -6 -10 -15 -31 -21 -47 -11 -28 -13 -28 -78 -24 -50 3 -69 9 -80 24 -24 33 -27 63 -8 84 18 20 17 20 -43 20 -34 0 -62 -4 -62 -9z m211 -152 c37 -12 38 -13 25 -38 -7 -14 -17 -39 -21 -56 -4 -16 -10 -24 -12 -17 -3 6 -9 10 -14 6 -12 -7 -52 83 -45 102 7 17 17 17 67 3z"/>
 <path d="M12070 7871 c0 -5 10 -11 23 -13 22 -3 22 -4 22 -178 0 -174 0 -175 -22 -178 -41 -6 -24 -22 22 -22 l45 0 1 103 c1 56 1 137 -1 179 l-2 77 33 20 34 21 -77 0 c-43 0 -78 -4 -78 -9z"/>
 <path d="M12363 7868 c-13 -6 -43 -42 -69 -79 -36 -53 -52 -69 -70 -69 -27 0 -32 -15 -8 -24 8 -3 12 -11 8 -17 -4 -8 -3 -9 5 -5 6 4 23 0 36 -8 21 -14 25 -24 25 -67 0 -57 -24 -88 -69 -89 -20 0 -21 -2 -11 -15 19 -23 47 -18 85 18 25 22 38 44 42 72 3 22 10 43 15 46 14 9 -17 42 -43 43 -38 2 -33 28 19 97 60 79 106 107 153 93 l34 -10 3 -177 c2 -172 2 -177 -18 -177 -11 0 -20 -4 -20 -10 0 -5 18 -10 40 -10 l40 0 0 179 0 179 25 16 c21 14 33 15 63 6 45 -12 42 -6 122 -205 17 -44 38 -93 45 -110 8 -16 16 -40 20 -52 10 -34 25 -27 25 11 0 18 11 58 23 87 13 30 41 98 63 152 33 86 43 101 74 117 l35 19 -60 1 -60 0 -1 -38 c-1 -21 -9 -51 -19 -65 -15 -23 -24 -27 -65 -27 -71 0 -96 13 -110 55 -10 31 -10 39 6 56 17 19 14 19 -172 18 -113 0 -198 -5 -211 -11z m488 -149 c37 -12 38 -13 25 -38 -7 -14 -17 -39 -21 -56 -4 -16 -10 -24 -12 -17 -3 6 -9 10 -14 6 -12 -7 -52 85 -45 103 7 16 18 16 67 2z"/>
 <path d="M10958 7645 l-3 -140 -27 -3 c-45 -5 -32 -22 16 -22 l44 0 1 133 c1 103 -1 136 -13 152 -14 18 -15 7 -18 -120z"/>
 <path d="M5108 7708 c-3 -20 -11 -24 -53 -28 l-50 -6 39 -17 c21 -9 44 -17 50 -17 13 0 36 46 36 72 0 26 -18 22 -22 -4z"/>
 <path d="M4280 7690 c0 -5 11 -12 24 -16 29 -7 56 -44 56 -74 0 -39 -29 -80 -61 -87 -35 -7 -33 -27 3 -31 18 -2 36 7 62 31 30 29 36 41 36 75 0 23 5 43 13 46 8 3 0 16 -23 35 -25 23 -44 31 -72 31 -21 0 -38 -4 -38 -10z"/>
 <path d="M5360 7691 c0 -5 12 -12 26 -15 33 -9 63 -44 64 -74 0 -37 -32 -83 -62 -89 -31 -6 -37 -20 -12 -30 24 -9 83 26 100 58 8 16 14 41 14 58 0 16 6 32 13 35 8 3 0 16 -23 35 -27 24 -44 31 -77 31 -24 0 -43 -4 -43 -9z"/>
 <path d="M5130 7551 c0 -22 -34 -41 -73 -41 -39 -1 -41 -2 -23 -15 29 -22 69 -18 94 8 23 24 30 57 12 57 -5 0 -10 -4 -10 -9z"/>
 <path d="M6970 7545 c0 -20 -32 -35 -76 -35 -46 0 -35 -13 24 -28 31 -7 42 -7 42 2 0 6 9 17 20 24 23 14 27 52 5 52 -8 0 -15 -7 -15 -15z"/>
 <path d="M11660 7545 c0 -20 -32 -35 -76 -35 -46 0 -35 -13 24 -28 31 -7 42 -7 42 2 0 6 9 17 20 24 23 14 27 52 5 52 -8 0 -15 -7 -15 -15z"/>
 <path d="M11060 7394 c-25 -8 -79 -17 -120 -20 -41 -3 -115 -13 -165 -22 l-90 -17 90 -5 90 -5 -115 -42 c-171 -63 -337 -116 -605 -194 -325 -95 -379 -112 -530 -168 -181 -68 -182 -69 -216 -124 -38 -62 -179 -348 -179 -364 0 -16 64 -21 310 -28 213 -5 382 -11 583 -21 87 -4 117 -2 112 6 -4 7 2 14 14 17 12 3 21 11 21 18 0 29 41 28 71 -1 16 -15 29 -34 29 -41 0 -7 5 -13 11 -13 5 0 8 3 6 8 -3 4 90 4 206 0 117 -4 321 -9 453 -10 133 -2 240 -6 238 -10 -3 -4 66 -8 153 -10 87 -2 160 0 161 5 2 4 8 5 13 2 17 -11 75 28 131 88 32 34 58 68 58 75 0 6 7 12 16 12 15 0 174 153 174 168 0 23 141 80 305 123 l110 29 75 79 c41 43 95 93 120 109 141 95 200 235 122 290 -22 16 -54 20 -177 26 -82 4 -179 11 -215 16 -36 5 -263 9 -506 9 -372 0 -447 2 -485 15 -56 20 -208 20 -269 0z"/>
 <path d="M6715 7340 c-201 -26 -367 -30 -845 -19 -272 5 -542 12 -599 15 -68 4 -113 1 -132 -6 -16 -7 -66 -52 -111 -100 -61 -64 -96 -112 -132 -181 -26 -52 -82 -145 -123 -207 -89 -135 -142 -236 -147 -277 -4 -30 -4 -30 48 -30 48 0 498 -13 1266 -35 190 -6 550 -15 800 -21 588 -13 837 -22 847 -32 4 -5 9 -87 11 -183 l3 -173 61 119 c33 66 82 145 107 176 207 257 614 239 800 -35 41 -59 115 -203 149 -286 11 -27 43 -104 71 -171 27 -66 56 -151 63 -187 11 -61 14 -65 29 -51 18 16 16 73 -3 85 -7 4 -6 9 1 14 9 5 9 10 0 21 -6 7 -9 21 -5 29 3 8 1 15 -3 15 -5 0 -11 17 -14 38 -5 32 -43 177 -47 177 -2 0 -2 7 -14 115 -3 36 -9 83 -13 105 -3 22 -5 55 -4 73 1 17 -2 32 -7 32 -5 0 -7 11 -5 24 3 14 -1 57 -8 98 -7 40 -13 78 -14 83 0 6 -4 14 -10 18 -6 6 -6 10 2 14 9 3 10 10 4 21 -4 9 -11 35 -14 57 -3 22 -14 92 -25 155 -25 144 -30 184 -38 345 -3 72 -8 133 -11 138 -2 4 -194 7 -426 7 -315 0 -447 4 -522 15 -76 11 -200 14 -515 13 -228 0 -442 -4 -475 -8z m1092 -72 c-10 -85 -58 -320 -67 -328 -10 -10 -41 -70 -36 -70 3 0 -14 -28 -38 -62 -23 -35 -46 -72 -51 -83 -6 -14 -11 9 -16 80 -10 154 -55 319 -123 453 l-26 52 181 0 181 0 -5 -42z"/>
 <path d="M8114 6350 c-103 -24 -168 -125 -129 -200 27 -52 73 -60 268 -51 10 1 29 12 42 26 20 19 25 34 25 75 0 43 -5 55 -36 90 -25 28 -52 44 -87 55 -28 8 -51 15 -51 14 -1 -1 -15 -4 -32 -9z m188 -156 c-2 -10 -9 -25 -14 -31 -15 -18 -83 -37 -104 -29 -22 9 -10 20 39 36 20 6 42 21 48 31 13 25 35 19 31 -7z"/>
 <path d="M7561 5466 c-6 -8 -16 -40 -21 -71 -5 -32 -17 -66 -26 -76 -16 -18 -16 -19 12 -21 50 -3 87 2 101 14 17 14 63 109 63 131 0 9 -9 21 -19 27 -28 15 -97 12 -110 -4z"/>
 <path d="M8620 5462 l-22 -18 33 -67 c28 -57 39 -69 67 -77 19 -5 47 -7 62 -3 27 5 27 6 14 32 -8 14 -14 40 -14 56 0 17 -9 45 -20 63 -17 27 -25 32 -59 32 -22 0 -48 -8 -61 -18z"/>
 <path d="M8902 5205 c-20 -76 -16 -101 18 -115 17 -7 30 -19 30 -26 0 -8 5 -14 10 -14 15 0 12 7 -12 40 -12 16 -18 33 -14 37 4 5 52 8 106 8 85 -1 97 1 87 14 -27 33 -68 48 -113 43 -34 -4 -44 -1 -44 10 0 16 -31 48 -46 48 -6 0 -15 -20 -22 -45z"/>
 <path d="M8724 4649 c-29 -4 -57 -10 -63 -13 -6 -4 -20 -9 -32 -11 -28 -6 -108 -72 -121 -101 -6 -13 -15 -24 -20 -24 -5 0 -7 -4 -4 -9 4 -5 1 -11 -5 -13 -8 -3 -6 -13 7 -34 19 -29 108 -124 117 -124 3 0 19 -12 35 -27 30 -29 69 -61 94 -78 8 -5 35 -23 59 -39 49 -33 139 -120 139 -136 0 -5 9 -19 20 -30 11 -11 22 -31 24 -46 3 -14 9 -31 14 -37 15 -19 28 -116 26 -197 -2 -79 -7 -119 -26 -185 -6 -22 -12 -42 -12 -45 -1 -3 -4 -10 -8 -16 -13 -20 4 -24 33 -7 16 10 29 20 29 23 0 3 17 24 38 45 21 22 50 61 64 87 24 43 26 58 26 152 0 82 4 113 18 143 11 21 24 38 29 39 6 0 23 6 38 12 38 16 86 15 136 -3 22 -8 41 -11 41 -8 0 3 8 0 18 -9 9 -8 28 -19 42 -25 32 -13 137 -92 172 -130 15 -15 41 -41 57 -57 16 -16 35 -41 41 -55 7 -14 17 -34 22 -44 20 -39 3 -140 -30 -179 -9 -10 -11 -18 -7 -18 4 0 -2 -8 -13 -19 -12 -10 -22 -22 -22 -26 0 -5 -11 -20 -25 -34 -13 -14 -49 -57 -80 -96 -31 -38 -70 -88 -88 -109 -18 -22 -32 -42 -32 -45 0 -9 -47 -75 -60 -83 -5 -4 -6 -8 -2 -8 5 0 -6 -21 -25 -48 -18 -26 -46 -74 -63 -107 -16 -33 -34 -63 -40 -67 -5 -4 -6 -8 -1 -8 5 0 2 -8 -7 -17 -8 -10 -18 -30 -22 -45 -4 -15 -13 -32 -21 -39 -8 -6 -14 -15 -14 -20 0 -4 -5 -20 -12 -36 -6 -15 -12 -31 -12 -35 -1 -3 -4 -10 -8 -14 -12 -12 -9 -24 6 -24 7 0 19 14 26 30 7 17 16 30 21 30 5 0 9 6 9 13 0 7 8 22 18 33 11 11 21 25 23 31 15 43 205 247 238 256 43 11 46 -2 46 -200 -1 -124 -5 -195 -13 -209 -6 -12 -14 -35 -17 -53 -19 -106 -123 -324 -192 -401 -35 -38 -11 -48 39 -15 63 42 115 93 167 165 49 67 101 170 101 199 0 9 5 22 12 29 6 6 12 26 13 44 2 18 5 40 8 48 7 21 28 161 33 223 3 29 7 60 10 69 8 25 14 59 20 98 2 19 9 49 15 67 5 17 12 44 15 60 7 38 35 122 51 153 7 14 13 28 13 32 0 4 14 27 31 52 25 38 34 44 48 36 19 -10 52 -54 55 -74 1 -6 8 -22 15 -35 24 -43 21 -301 -4 -431 -3 -14 -7 -46 -10 -72 -3 -26 -10 -60 -16 -75 -7 -15 -15 -48 -20 -73 -18 -110 -111 -406 -148 -476 -11 -21 -18 -41 -15 -45 11 -18 -194 -328 -263 -396 -29 -29 -53 -55 -53 -58 0 -10 -163 -170 -171 -167 -15 4 -10 -16 6 -22 8 -3 15 -1 15 4 0 6 3 9 8 8 17 -3 144 58 178 87 7 6 32 26 55 45 72 58 139 128 139 145 0 8 4 15 9 15 4 0 28 28 52 63 24 34 47 64 51 65 4 2 8 8 8 14 0 5 15 33 33 61 47 76 52 84 97 174 22 45 45 85 50 88 6 3 10 13 10 21 0 8 14 43 30 76 17 34 32 68 34 77 3 16 23 64 52 128 8 17 14 37 14 45 0 7 6 22 14 33 7 11 16 34 21 50 7 30 8 30 35 -30 15 -33 26 -63 24 -67 -2 -3 1 -19 7 -35 6 -15 14 -64 19 -108 10 -95 -7 -205 -70 -444 -6 -23 -14 -50 -18 -60 -5 -14 -4 -14 11 -2 9 7 17 19 17 26 0 8 4 15 9 17 11 4 78 129 97 181 33 91 53 164 59 212 7 67 12 95 19 124 3 13 1 33 -5 43 -8 15 -8 19 0 14 15 -10 14 7 -1 22 -10 10 -10 15 2 22 13 9 13 10 0 10 -13 0 -13 1 0 10 8 5 10 10 5 10 -6 0 -11 12 -11 28 -2 69 -5 83 -11 79 -5 -3 -8 13 -9 35 0 22 -6 43 -13 47 -6 4 -13 21 -15 37 -1 16 -7 28 -14 27 -6 -2 -9 4 -5 12 3 9 -4 24 -16 34 -14 13 -18 20 -10 23 7 2 9 10 5 17 -5 7 -15 10 -23 6 -12 -4 -13 -2 -5 8 9 10 8 17 -1 27 -9 10 -9 11 1 6 21 -13 13 13 -12 35 -17 15 -23 28 -20 46 3 18 -3 32 -21 49 -22 20 -24 26 -13 43 10 17 9 23 -7 41 -11 12 -19 24 -17 26 8 13 0 34 -10 28 -9 -5 -9 -2 1 9 9 12 10 17 2 17 -7 0 -10 4 -7 9 3 5 -1 22 -9 37 -8 16 -12 37 -9 48 4 13 3 16 -7 11 -9 -6 -11 -4 -6 7 3 9 3 19 -1 22 -9 10 -13 35 -15 88 -1 26 -4 45 -8 42 -3 -2 -6 14 -5 35 0 22 4 37 8 35 5 -3 8 1 8 9 0 8 -9 17 -21 20 -12 3 -18 10 -14 17 4 6 0 21 -8 33 -7 12 -17 33 -20 47 -9 37 -116 179 -166 220 -23 19 -53 44 -66 55 -13 11 -33 27 -45 36 -12 9 -23 24 -24 33 -3 19 -16 34 -16 17 0 -7 -5 -9 -10 -6 -6 4 -7 11 -4 17 4 6 -1 8 -15 3 -16 -5 -20 -3 -15 10 4 9 3 15 -2 14 -17 -2 -54 13 -54 23 0 5 -6 8 -12 6 -7 -3 -20 3 -30 12 -9 9 -41 24 -70 34 -29 11 -62 26 -72 35 -16 13 -18 13 -11 1 5 -9 0 -8 -13 4 -12 11 -22 16 -22 12 0 -3 -11 1 -24 10 -14 8 -29 15 -33 15 -14 -1 -63 23 -63 31 0 4 -7 5 -15 2 -8 -4 -22 0 -31 7 -19 16 -51 34 -83 49 -13 6 -43 23 -65 38 -23 15 -54 34 -69 41 -37 19 -177 150 -177 165 0 6 -9 18 -19 26 -11 7 -18 16 -16 20 4 7 -16 7 -81 -1z"/>
 <path d="M7519 4643 c-25 -3 -40 -12 -52 -31 -24 -39 -64 -82 -77 -82 -5 0 -10 -4 -10 -8 0 -4 -23 -26 -52 -47 -28 -22 -57 -45 -64 -53 -7 -7 -16 -13 -19 -12 -21 1 -25 -1 -19 -12 4 -6 3 -8 -4 -4 -10 6 -84 -31 -90 -46 -2 -4 -10 -8 -18 -8 -8 0 -14 -5 -14 -11 0 -5 -4 -8 -9 -4 -5 3 -15 -1 -23 -8 -13 -14 -21 -17 -39 -17 -5 0 -7 -6 -3 -12 6 -10 4 -10 -8 0 -13 10 -17 10 -22 -3 -3 -8 -16 -15 -30 -15 -14 0 -28 -4 -31 -10 -3 -5 -15 -10 -26 -10 -10 0 -19 -4 -19 -9 0 -5 -13 -12 -30 -16 -16 -4 -30 -10 -30 -15 0 -4 -7 -11 -16 -14 -10 -4 -13 -2 -8 7 4 6 -1 5 -12 -5 -10 -9 -28 -18 -39 -20 -11 -1 -26 -9 -33 -15 -7 -7 -19 -13 -27 -13 -7 0 -16 -7 -19 -16 -4 -9 -13 -14 -21 -10 -8 3 -14 1 -12 -5 1 -6 -9 -15 -23 -20 -24 -9 -24 -8 -6 6 11 8 15 15 9 15 -6 0 -16 -7 -23 -15 -7 -8 -19 -15 -27 -15 -8 0 -12 -4 -8 -10 3 -5 -12 -14 -33 -19 -21 -6 -49 -20 -62 -31 -12 -11 -26 -18 -30 -15 -4 2 -15 -4 -25 -15 -10 -11 -33 -24 -51 -30 -19 -7 -34 -16 -34 -21 0 -6 -4 -7 -10 -4 -5 3 -10 2 -10 -4 0 -6 -17 -18 -37 -28 -21 -9 -40 -20 -43 -23 -3 -4 -27 -21 -55 -40 -27 -18 -54 -40 -58 -47 -4 -7 -14 -13 -21 -13 -8 0 -17 -7 -20 -16 -4 -9 -9 -14 -12 -11 -6 6 -116 -107 -143 -146 -8 -12 -20 -25 -25 -29 -6 -4 -7 -8 -2 -8 5 0 -1 -9 -14 -20 -13 -11 -19 -20 -15 -20 5 0 -2 -12 -16 -26 -13 -14 -23 -29 -23 -32 1 -4 -9 -29 -22 -57 -47 -102 -67 -178 -71 -277 -5 -100 5 -125 26 -70 5 15 17 38 25 52 8 14 39 74 68 135 75 154 87 175 100 175 6 0 9 3 5 6 -5 6 10 28 46 66 9 10 14 18 11 18 -3 0 21 27 54 60 63 63 103 77 117 43 19 -51 12 -147 -20 -283 -3 -14 -8 -34 -9 -45 -2 -11 -10 -33 -17 -50 -7 -16 -13 -34 -14 -40 -1 -5 -9 -27 -18 -49 -9 -21 -17 -44 -17 -50 0 -6 -7 -24 -16 -41 -8 -16 -24 -57 -35 -90 -11 -33 -26 -71 -33 -85 -28 -51 -76 -211 -85 -287 -14 -115 -4 -268 25 -372 17 -62 49 -151 63 -178 5 -10 17 -37 27 -60 11 -24 22 -43 27 -43 4 0 7 -7 7 -15 0 -8 5 -15 10 -15 6 0 9 -3 8 -7 -3 -9 43 -73 52 -73 4 0 7 7 7 15 0 8 -4 15 -9 15 -4 0 -8 6 -8 14 0 8 -12 54 -26 102 -14 49 -26 101 -26 116 0 15 -4 30 -9 34 -5 3 -7 9 -5 13 3 4 1 25 -5 45 -22 81 -18 271 8 336 3 8 8 24 10 35 2 11 10 34 17 50 7 17 16 37 19 45 4 12 6 11 6 -2 1 -10 1 -21 0 -24 0 -4 3 -10 8 -13 5 -3 20 -40 33 -81 13 -41 27 -80 31 -85 8 -11 50 -120 50 -132 1 -5 6 -14 12 -21 6 -8 12 -24 14 -35 2 -12 12 -34 23 -49 11 -15 20 -30 20 -33 0 -10 99 -207 126 -250 13 -22 27 -47 31 -55 4 -8 9 -17 13 -20 3 -3 23 -30 44 -60 22 -30 45 -59 52 -63 8 -4 14 -14 14 -21 0 -8 10 -16 22 -19 12 -4 19 -9 16 -12 -3 -4 7 -19 22 -33 113 -107 126 -118 205 -164 51 -31 137 -68 144 -63 4 2 -36 49 -88 105 -53 55 -105 112 -116 126 -11 14 -29 34 -39 45 -11 10 -17 19 -14 19 3 0 -10 17 -29 37 -19 21 -44 55 -56 77 -37 65 -43 75 -60 94 -10 10 -17 24 -17 30 0 6 -6 17 -13 24 -10 11 -38 63 -42 78 0 3 -11 24 -23 48 -29 55 -82 209 -74 216 3 3 0 6 -7 6 -7 0 -10 4 -7 8 3 5 0 19 -7 33 -7 13 -14 37 -15 53 -2 16 -10 46 -18 68 -8 22 -12 44 -9 48 3 5 1 11 -4 14 -7 5 -20 58 -27 116 -1 8 -8 44 -17 80 -42 177 -42 457 1 535 22 40 52 66 71 63 16 -3 64 -80 75 -119 4 -13 13 -40 20 -59 26 -69 40 -116 47 -160 5 -25 13 -67 18 -95 23 -119 42 -233 45 -275 2 -25 8 -64 15 -88 7 -24 14 -55 16 -70 2 -15 11 -45 21 -67 10 -22 17 -43 16 -47 -1 -3 5 -12 13 -18 8 -7 15 -20 15 -30 0 -10 7 -23 15 -30 8 -7 15 -16 15 -21 0 -5 8 -19 17 -31 29 -38 155 -158 165 -158 5 0 16 -7 25 -16 12 -12 18 -13 27 -3 8 8 8 13 -1 16 -7 3 -13 11 -13 19 0 8 -4 14 -9 14 -4 0 -23 28 -41 62 -19 35 -37 65 -42 66 -4 2 -8 12 -8 22 0 10 -4 22 -10 25 -5 3 -14 24 -20 45 -6 22 -15 40 -20 40 -6 0 -10 10 -10 23 0 12 -7 40 -14 62 -8 22 -17 57 -20 79 -4 21 -8 41 -10 45 -16 27 -22 197 -10 301 7 63 17 80 43 73 19 -5 124 -103 156 -147 11 -14 25 -32 31 -39 6 -6 18 -24 28 -39 10 -15 22 -25 27 -22 5 3 9 2 8 -3 -4 -21 3 -35 32 -62 17 -17 28 -34 25 -39 -3 -6 1 -13 10 -16 12 -5 15 -2 9 11 -4 10 -14 38 -23 63 -8 25 -21 49 -29 53 -7 5 -11 12 -8 17 3 5 1 11 -5 15 -6 4 -8 11 -4 16 3 6 -3 18 -15 28 -11 10 -18 21 -14 25 3 3 1 6 -6 6 -6 0 -11 6 -10 13 2 13 -11 49 -21 57 -9 8 -44 64 -45 72 0 4 -7 16 -16 26 -9 10 -19 31 -23 45 -3 15 -11 27 -16 27 -5 0 -21 22 -37 50 -15 27 -31 50 -35 50 -5 0 -8 4 -8 9 0 5 -11 22 -24 37 -13 16 -43 52 -65 79 -23 28 -54 64 -70 80 -48 52 -100 158 -103 210 -1 20 13 78 24 99 11 23 173 186 183 186 4 0 21 11 39 25 17 14 36 29 41 33 6 5 12 9 15 9 3 1 21 8 40 16 92 39 137 45 203 26 60 -16 73 -48 75 -176 1 -137 16 -172 115 -277 76 -80 113 -95 79 -33 -44 80 -61 299 -30 400 10 32 23 68 30 80 7 12 13 27 14 34 4 20 69 102 87 108 9 4 17 10 17 16 0 5 19 21 42 35 23 15 46 30 52 35 6 5 26 20 44 35 17 14 32 22 32 18 0 -4 13 6 29 22 15 16 63 62 104 103 42 40 74 78 71 82 -3 5 -1 9 4 9 8 0 46 71 40 74 -2 1 -22 16 -45 34 -23 17 -47 32 -54 32 -7 0 -20 7 -30 16 -18 16 -137 25 -220 17z"/>
 </g>

</svg>